<svg width="240" height="241" viewBox="0 0 240 241" fill="none" xmlns="http://www.w3.org/2000/svg">
<path opacity="0.2" d="M29.022 240.811L29.022 0.810791M59.306 240.811L59.306 0.810791M89.5899 240.811L89.5899 0.810791M119.874 240.811L119.874 0.810791M150.158 240.811L150.158 0.810791M180.442 240.811L180.442 0.810791M210.726 240.811L210.726 0.810791M7.94227e-06 29.8329H240M6.61856e-06 60.1168H240M5.29485e-06 90.4007H240M3.97114e-06 120.685H240M2.64742e-06 150.969H240M1.32371e-06 181.252H240M0 211.536H240" stroke="url(#paint0_radial_4_2588)"/>
<defs>
<radialGradient id="paint0_radial_4_2588" cx="0" cy="0" r="1" gradientUnits="userSpaceOnUse" gradientTransform="translate(120 120.811) rotate(90) scale(120)">
<stop/>
<stop offset="1" stop-opacity="0"/>
</radialGradient>
</defs>
</svg>
