<svg width="40" height="40" viewBox="0 0 40 40" fill="none" xmlns="http://www.w3.org/2000/svg">
<path d="M8.125 17.5H1.875C0.839453 17.5 0 18.3395 0 19.375V38.125C0 39.1605 0.839453 40 1.875 40H8.125C9.16055 40 10 39.1605 10 38.125V19.375C10 18.3395 9.16055 17.5 8.125 17.5ZM5 36.875C3.96445 36.875 3.125 36.0355 3.125 35C3.125 33.9645 3.96445 33.125 5 33.125C6.03555 33.125 6.875 33.9645 6.875 35C6.875 36.0355 6.03555 36.875 5 36.875ZM30 6.36344C30 9.67719 27.9711 11.5359 27.4002 13.75H35.3473C37.9565 13.75 39.9877 15.9177 39.9999 18.2889C40.0065 19.6903 39.4104 21.199 38.4813 22.1324L38.4727 22.141C39.2411 23.9642 39.1162 26.5189 37.7455 28.3495C38.4237 30.3726 37.7401 32.8577 36.4656 34.1899C36.8014 35.5648 36.6409 36.7348 35.9853 37.6768C34.3908 39.9677 30.4388 40 27.0968 40L26.8745 39.9999C23.1021 39.9986 20.0147 38.6251 17.5339 37.5214C16.2873 36.9668 14.6573 36.2802 13.4205 36.2575C12.9096 36.2481 12.5 35.8312 12.5 35.3202V18.6194C12.5 18.3694 12.6002 18.1295 12.778 17.9537C15.8728 14.8955 17.2036 11.6578 19.7402 9.11687C20.8968 7.95813 21.3174 6.20781 21.7241 4.51516C22.0715 3.06977 22.7982 0 24.375 0C26.25 0 30 0.625 30 6.36344Z" fill="black"/>
</svg>
