<svg width="82" height="19" viewBox="0 0 82 19" fill="none" xmlns="http://www.w3.org/2000/svg">
<path d="M0.82 14V-9.53674e-07H3.56L8.66 8.3L6.86 8.28L12.02 -9.53674e-07H14.64V14H11.7V9.2C11.7 8 11.7267 6.92 11.78 5.96C11.8467 5 11.9533 4.04667 12.1 3.1L12.46 4.04L8.36 10.4H7.04L3.02 4.08L3.36 3.1C3.50667 3.99333 3.60667 4.91333 3.66 5.86C3.72667 6.79333 3.76 7.90667 3.76 9.2V14H0.82ZM19.9609 18.6L22.2809 13.16L22.3209 14.8L17.1609 3.42H20.3809L22.9609 9.52C23.0676 9.74667 23.1676 10.0133 23.2609 10.32C23.3676 10.6133 23.4543 10.9 23.5209 11.18L23.0409 11.38C23.1209 11.1533 23.2143 10.8933 23.3209 10.6C23.4276 10.3067 23.5343 9.99333 23.6409 9.66L25.8609 3.42H29.1009L24.6609 14L22.8409 18.6H19.9609ZM31.6294 14V-9.53674e-07H37.5694C38.396 -9.53674e-07 39.1427 0.199999 39.8094 0.6C40.4894 0.986666 41.0227 1.52 41.4094 2.2C41.8094 2.88 42.0094 3.64667 42.0094 4.5C42.0094 5.36667 41.8094 6.14667 41.4094 6.84C41.0227 7.53333 40.4894 8.08667 39.8094 8.5C39.1427 8.9 38.396 9.1 37.5694 9.1H34.6294V14H31.6294ZM34.5894 6.4H37.2294C37.5494 6.4 37.836 6.32 38.0894 6.16C38.3427 5.98667 38.5427 5.76 38.6894 5.48C38.8494 5.2 38.9294 4.88 38.9294 4.52C38.9294 4.16 38.8494 3.84667 38.6894 3.58C38.5427 3.3 38.3427 3.08667 38.0894 2.94C37.836 2.78 37.5494 2.7 37.2294 2.7H34.5894V6.4ZM48.6605 14.2C47.7805 14.2 46.9871 13.96 46.2805 13.48C45.5738 13 45.0138 12.3467 44.6005 11.52C44.1871 10.6933 43.9805 9.74667 43.9805 8.68C43.9805 7.61333 44.1871 6.67333 44.6005 5.86C45.0271 5.03333 45.6005 4.38667 46.3205 3.92C47.0405 3.44 47.8605 3.2 48.7805 3.2C49.3005 3.2 49.7738 3.28 50.2005 3.44C50.6405 3.58667 51.0205 3.79333 51.3405 4.06C51.6738 4.32667 51.9538 4.63333 52.1805 4.98C52.4071 5.32667 52.5671 5.7 52.6605 6.1L52.0605 6V3.42H54.8805V14H52.0205V11.46L52.6605 11.4C52.5538 11.7733 52.3805 12.1267 52.1405 12.46C51.9005 12.7933 51.6005 13.0933 51.2405 13.36C50.8938 13.6133 50.5005 13.82 50.0605 13.98C49.6205 14.1267 49.1538 14.2 48.6605 14.2ZM49.4405 11.74C49.9738 11.74 50.4405 11.6133 50.8405 11.36C51.2405 11.1067 51.5471 10.7533 51.7605 10.3C51.9871 9.83333 52.1005 9.29333 52.1005 8.68C52.1005 8.08 51.9871 7.55333 51.7605 7.1C51.5471 6.64667 51.2405 6.29333 50.8405 6.04C50.4405 5.77333 49.9738 5.64 49.4405 5.64C48.9205 5.64 48.4605 5.77333 48.0605 6.04C47.6738 6.29333 47.3671 6.64667 47.1405 7.1C46.9138 7.55333 46.8005 8.08 46.8005 8.68C46.8005 9.29333 46.9138 9.83333 47.1405 10.3C47.3671 10.7533 47.6738 11.1067 48.0605 11.36C48.4605 11.6133 48.9205 11.74 49.4405 11.74ZM63.1478 18.6C62.3078 18.6 61.4811 18.4733 60.6678 18.22C59.8545 17.98 59.1945 17.6667 58.6878 17.28L59.6878 15.24C59.9545 15.4267 60.2611 15.5933 60.6078 15.74C60.9545 15.8867 61.3145 16 61.6878 16.08C62.0745 16.16 62.4678 16.2 62.8678 16.2C63.5611 16.2 64.1278 16.0933 64.5678 15.88C65.0211 15.6667 65.3611 15.3467 65.5878 14.92C65.8145 14.5067 65.9278 13.9733 65.9278 13.32V11.48L66.4078 11.58C66.3278 12.02 66.1078 12.4267 65.7478 12.8C65.3878 13.16 64.9345 13.4533 64.3878 13.68C63.8411 13.8933 63.2811 14 62.7078 14C61.7211 14 60.8478 13.7733 60.0878 13.32C59.3278 12.8667 58.7278 12.24 58.2878 11.44C57.8478 10.64 57.6278 9.72 57.6278 8.68C57.6278 7.61333 57.8411 6.67333 58.2678 5.86C58.7078 5.03333 59.3011 4.38667 60.0478 3.92C60.8078 3.44 61.6678 3.2 62.6278 3.2C63.0278 3.2 63.4078 3.24667 63.7678 3.34C64.1411 3.43333 64.4811 3.56667 64.7878 3.74C65.1078 3.9 65.3878 4.08667 65.6278 4.3C65.8811 4.5 66.0878 4.72 66.2478 4.96C66.4078 5.2 66.5078 5.44 66.5478 5.68L65.9678 5.84L66.0478 3.42H68.7678V13.2C68.7678 14.0667 68.6411 14.8333 68.3878 15.5C68.1345 16.1667 67.7611 16.7267 67.2678 17.18C66.7878 17.6467 66.1945 18 65.4878 18.24C64.7945 18.48 64.0145 18.6 63.1478 18.6ZM63.2278 11.72C63.7878 11.72 64.2745 11.5933 64.6878 11.34C65.1145 11.0867 65.4411 10.7333 65.6678 10.28C65.8945 9.82667 66.0078 9.29333 66.0078 8.68C66.0078 8.08 65.8945 7.55333 65.6678 7.1C65.4411 6.63333 65.1145 6.27333 64.6878 6.02C64.2745 5.76667 63.7878 5.64 63.2278 5.64C62.6811 5.64 62.1945 5.77333 61.7678 6.04C61.3545 6.29333 61.0345 6.64667 60.8078 7.1C60.5811 7.55333 60.4678 8.08 60.4678 8.68C60.4678 9.28 60.5811 9.81333 60.8078 10.28C61.0345 10.7333 61.3545 11.0867 61.7678 11.34C62.1945 11.5933 62.6811 11.72 63.2278 11.72ZM77.2095 14.2C76.0629 14.2 75.0629 13.9667 74.2095 13.5C73.3562 13.0333 72.6895 12.3933 72.2095 11.58C71.7295 10.7667 71.4895 9.83333 71.4895 8.78C71.4895 7.96667 71.6229 7.22 71.8895 6.54C72.1562 5.86 72.5295 5.27333 73.0095 4.78C73.4895 4.27333 74.0562 3.88667 74.7095 3.62C75.3762 3.34 76.0962 3.2 76.8695 3.2C77.5895 3.2 78.2562 3.33333 78.8695 3.6C79.4829 3.85333 80.0095 4.22 80.4495 4.7C80.9029 5.16667 81.2495 5.72 81.4895 6.36C81.7295 7 81.8362 7.7 81.8095 8.46L81.7895 9.34H73.2895L72.8295 7.6H79.4495L79.1295 7.96V7.52C79.1029 7.16 78.9829 6.83333 78.7695 6.54C78.5695 6.24667 78.3095 6.02 77.9895 5.86C77.6695 5.7 77.3095 5.62 76.9095 5.62C76.3229 5.62 75.8229 5.73333 75.4095 5.96C75.0095 6.18667 74.7029 6.52 74.4895 6.96C74.2762 7.4 74.1695 7.93333 74.1695 8.56C74.1695 9.2 74.3029 9.75333 74.5695 10.22C74.8495 10.6867 75.2362 11.0533 75.7295 11.32C76.2362 11.5733 76.8295 11.7 77.5095 11.7C77.9762 11.7 78.4029 11.6267 78.7895 11.48C79.1762 11.3333 79.5895 11.08 80.0295 10.72L81.3895 12.62C81.0029 12.9667 80.5762 13.26 80.1095 13.5C79.6429 13.7267 79.1629 13.9 78.6695 14.02C78.1762 14.14 77.6895 14.2 77.2095 14.2Z" fill="#1D1B1F"/>
</svg>
