<svg width="23" height="24" viewBox="0 0 23 24" fill="none" xmlns="http://www.w3.org/2000/svg">
<path d="M22.6272 23.437H17.9765V20.2641C17.1507 21.4523 16.1003 22.3687 14.8254 23.0132C13.5503 23.6577 12.1015 23.9801 10.4789 23.9805C8.47959 23.9805 6.70844 23.4697 5.16543 22.4481C3.62241 21.4268 2.40903 20.0215 1.52527 18.2323C0.641434 16.4429 0.199541 14.3965 0.199585 12.0929C0.199585 9.77487 0.648744 7.72473 1.54707 5.94252C2.44519 4.16068 3.68753 2.7626 5.27409 1.74827C6.86053 0.734394 8.68239 0.227319 10.7396 0.227051C12.2899 0.227051 13.6807 0.527713 14.9123 1.12906C16.1272 1.71673 17.1793 2.59349 17.9765 3.68246V0.770469H22.6272V23.437ZM17.8896 8.70269C17.3823 7.41322 16.5818 6.39537 15.4882 5.64915C14.3941 4.9031 13.13 4.53008 11.6959 4.53008C9.66737 4.53008 8.05196 5.211 6.84972 6.57282C5.64698 7.93473 5.04573 9.77475 5.04596 12.0929C5.04596 14.4257 5.62547 16.2729 6.7845 17.6347C7.94339 18.9966 9.51537 19.6775 11.5004 19.6774C12.9635 19.6774 14.2674 19.3007 15.4121 18.5472C16.5565 17.7942 17.3823 16.7801 17.8896 15.5048L17.8896 8.70269Z" fill="#1C2B33"/>
</svg>
