<svg width="15" height="17" viewBox="0 0 15 17" fill="none" xmlns="http://www.w3.org/2000/svg">
<path d="M2.64017 2.58209C4.58028 0.775866 7.57128 0.163041 10.0611 1.11453C12.4215 2.00152 13.9251 4.24317 14.685 6.54933C11.1766 8.00076 7.68445 9.43606 4.17609 10.8875C4.66112 11.8067 5.40482 12.6453 6.40721 12.984C7.81379 13.4839 9.49522 13.3065 10.6754 12.3712C11.1443 12.0164 11.5162 11.5487 11.8718 11.0971C12.7611 11.6938 13.6503 12.2744 14.5395 12.8711C13.2784 14.758 11.1605 16.0804 8.88084 16.29C6.35871 16.5964 3.6749 15.6288 2.04197 13.6613C-0.64184 10.565 -0.383157 5.37206 2.64017 2.58209M4.3701 5.56558C3.82041 6.35581 3.59406 7.32343 3.61023 8.27492C5.95452 7.3073 8.29882 6.33968 10.6431 5.35593C10.2551 4.45282 9.31738 3.9045 8.36349 3.75936C6.82757 3.4852 5.22698 4.30768 4.3701 5.56558V5.56558Z" fill="#FA3913"/>
</svg>
