<svg width="23" height="24" viewBox="0 0 23 24" fill="none" xmlns="http://www.w3.org/2000/svg">
<path d="M12.3169 23.9805C10.0421 23.9805 8.04276 23.477 6.31883 22.4701C4.59458 21.4631 3.2508 20.0687 2.2875 18.2866C1.32386 16.5045 0.842135 14.4617 0.842316 12.1582C0.842316 9.82568 1.31317 7.7611 2.25489 5.96445C3.1966 4.16818 4.50416 2.76279 6.17758 1.74827C7.85103 0.734394 9.77433 0.227319 11.9475 0.227051C14.1061 0.227051 15.9642 0.737729 17.5218 1.75909C19.079 2.78074 20.2778 4.21148 21.1184 6.05133C21.9585 7.89145 22.3787 10.0502 22.3789 12.5276V13.8748H5.71031C6.01464 15.7296 6.76443 17.1893 7.95968 18.2539C9.15493 19.3188 10.6653 19.8512 12.4907 19.8511C13.954 19.8511 15.2144 19.6338 16.2722 19.1992C17.3296 18.7645 18.3221 18.1054 19.2495 17.2217L21.8573 20.4162C19.2637 22.7926 16.0835 23.9807 12.3169 23.9805ZM15.9028 5.9317C14.8739 4.88147 13.5265 4.35626 11.8606 4.35607C10.2378 4.35607 8.87951 4.8922 7.7858 5.96445C6.69171 7.03661 5.99988 8.47817 5.71031 10.2892H17.6631C17.5181 8.4346 16.9313 6.98211 15.9028 5.9317Z" fill="#1C2B33"/>
</svg>
