<svg width="16" height="24" viewBox="0 0 16 24" fill="none" xmlns="http://www.w3.org/2000/svg">
<path d="M4.28288 1.75956C6.14215 0.598412 8.61579 0.275873 10.6206 1.27575C11.2511 1.54991 11.7685 2.01759 12.2696 2.48527C12.2858 2.04984 12.2696 1.59829 12.2858 1.14673C13.369 1.16286 14.4523 1.14673 15.5517 1.16286V15.3869C15.5355 17.5318 14.9858 19.8057 13.4337 21.37C11.7361 23.0956 9.13315 23.6278 6.78885 23.273C4.28288 22.902 2.10026 21.0797 1.13021 18.7735C2.10026 18.3059 3.11882 17.9349 4.12121 17.4995C4.68707 18.8219 5.83497 19.9508 7.27388 20.2088C8.71279 20.4669 10.378 20.1121 11.3158 18.9187C12.3182 17.693 12.3182 16.0158 12.2696 14.516C11.5259 15.2417 10.6691 15.8868 9.63434 16.1287C7.38705 16.7577 4.91342 15.9836 3.18349 14.4676C1.4374 12.9517 0.402672 10.6133 0.499678 8.29099C0.54818 5.66229 2.03559 3.13035 4.28288 1.75956ZM7.62957 3.82381C6.64335 3.98508 5.72179 4.5334 5.09126 5.29137C3.57151 7.09759 3.57151 9.98432 5.10743 11.7583C5.98047 12.8065 7.38705 13.3871 8.74513 13.242C10.0224 13.113 11.2026 12.3066 11.8331 11.1938C12.9002 9.30699 12.7223 6.7428 11.2834 5.09784C10.3942 4.08184 8.97147 3.58191 7.62957 3.82381Z" fill="#3780FF"/>
</svg>
