<svg width="25" height="25" viewBox="0 0 25 25" fill="none" xmlns="http://www.w3.org/2000/svg">
<path d="M12.1935 0.00268555H13.0504C16.0252 0.0671935 18.9515 1.26059 21.0533 3.37323C20.2773 4.16345 19.4851 4.92142 18.7252 5.71164C17.545 4.64726 16.1222 3.82478 14.5701 3.5345C12.2743 3.05069 9.8007 3.48612 7.87676 4.7924C5.77498 6.1632 4.35224 8.48549 4.04505 10.969C3.70554 13.4203 4.40074 16.0007 6.00133 17.9037C7.53724 19.7583 9.88154 20.9194 12.3067 21C14.5701 21.129 16.9306 20.4356 18.5797 18.8551C19.8731 17.7424 20.4713 16.049 20.6653 14.4041C17.9815 14.4041 15.2977 14.4202 12.6139 14.4041V11.0819H23.915C24.497 14.646 23.6563 18.6616 20.9401 21.2097C19.1294 23.0159 16.6234 24.0803 14.0689 24.2899C11.5953 24.5318 9.04082 24.0642 6.84204 22.8708C4.20673 21.4677 2.10495 19.097 1.07023 16.3071C0.100175 13.7429 0.0840072 10.84 0.989389 8.25971C1.81393 5.90517 3.39835 3.82478 5.43546 2.37335C7.39174 0.938051 9.76836 0.147828 12.1935 0.00268555Z" fill="#3780FF"/>
</svg>
