<svg width="27" height="32" viewBox="0 0 27 32" fill="none" xmlns="http://www.w3.org/2000/svg">
<path d="M22.4112 16.9102C22.397 14.2883 23.5792 12.3094 25.972 10.852C24.6331 8.9302 22.6107 7.87286 19.9401 7.66568C17.412 7.46564 14.6489 9.14452 13.6376 9.14452C12.5694 9.14452 10.1196 7.73712 8.19681 7.73712C4.22303 7.80142 0 10.9163 0 17.2531C0 19.1249 0.34183 21.0586 1.02549 23.0542C1.93704 25.6761 5.22715 32.1058 8.6597 31.9987C10.4543 31.9558 11.7219 30.7199 14.0578 30.7199C16.3224 30.7199 17.4974 31.9987 19.4986 31.9987C22.9596 31.9487 25.9364 26.1047 26.8052 23.4757C22.162 21.2824 22.4112 17.046 22.4112 16.9102ZM18.3805 5.17951C20.3247 2.86481 20.1466 0.757281 20.0897 0C18.3734 0.100018 16.3865 1.17164 15.2542 2.49331C14.0079 3.90785 13.2744 5.65817 13.4311 7.62996C15.2898 7.77284 16.9847 6.81553 18.3805 5.17951Z" fill="black"/>
</svg>
