<svg width="49" height="32" viewBox="0 0 49 32" fill="none" xmlns="http://www.w3.org/2000/svg">
<path d="M6.00381 21.1032C6.00381 22.9428 6.40759 24.3552 6.93533 25.2096C7.62728 26.3288 8.65931 26.8029 9.71146 26.8029C11.0685 26.8029 12.31 26.4662 14.7024 23.1573C16.6191 20.5051 18.8775 16.7824 20.3971 14.4486L22.9705 10.4947C24.7581 7.7487 26.8273 4.69612 29.1996 2.62701C31.1364 0.938226 33.2256 0 35.3282 0C38.8582 0 42.2208 2.04565 44.7942 5.8823C47.6105 10.0842 48.9776 15.3768 48.9776 20.8385C48.9776 24.0855 48.3376 26.4712 47.2486 28.356C46.1965 30.1788 44.1458 32 40.6962 32V26.8029C43.6499 26.8029 44.387 24.0888 44.387 20.9826C44.387 16.5562 43.355 11.644 41.0815 8.13402C39.4681 5.6444 37.3772 4.12313 35.0769 4.12313C32.5889 4.12313 30.5868 5.99957 28.3368 9.34533C27.1406 11.1229 25.9125 13.2892 24.5336 15.7336L23.0157 18.4226C19.9665 23.8291 19.1942 25.0605 17.6696 27.0928C14.9973 30.6513 12.7154 32 9.71146 32C6.14789 32 3.89449 30.457 2.49889 28.1315C1.35962 26.2367 0.800049 23.7504 0.800049 20.9173L6.00381 21.1032Z" fill="#0081FB"/>
</svg>
