<svg width="45" height="32" viewBox="0 0 45 32" fill="none" xmlns="http://www.w3.org/2000/svg">
<path d="M0.903076 6.2492C3.28883 2.57171 6.73177 0 10.6807 0C12.9676 0 15.2411 0.676864 17.6151 2.6153C20.212 4.73467 22.9797 8.22451 26.4327 13.9761L27.6708 16.0402C30.6597 21.0195 32.3602 23.5812 33.3554 24.7891C34.6354 26.3405 35.5318 26.8029 36.6962 26.8029C39.6499 26.8029 40.387 24.0888 40.387 20.9826L44.9776 20.8385C44.9776 24.0855 44.3376 26.4712 43.2486 28.356C42.1965 30.1788 40.1458 32 36.6962 32C34.5516 32 32.6518 31.5342 30.5508 29.5523C28.9357 28.031 27.0476 25.3286 25.595 22.8993L21.2742 15.6817C19.1062 12.0595 17.1175 9.35873 15.9665 8.1357C14.7284 6.82052 13.1368 5.23224 10.5969 5.23224C8.54119 5.23224 6.79543 6.67476 5.33449 8.88126L0.903076 6.2492Z" fill="url(#paint0_linear_4_3519)"/>
<defs>
<linearGradient id="paint0_linear_4_3519" x1="7.01993" y1="19.6021" x2="40.1927" y2="21.2775" gradientUnits="userSpaceOnUse">
<stop stop-color="#0064E1"/>
<stop offset="0.4" stop-color="#0064E1"/>
<stop offset="0.83" stop-color="#0073EE"/>
<stop offset="1" stop-color="#0082FB"/>
</linearGradient>
</defs>
</svg>
