<svg width="109" height="21" viewBox="0 0 109 21" fill="none" xmlns="http://www.w3.org/2000/svg">
<path d="M108.49 9.47694V6.84225H105.218V2.74632L105.108 2.78023L102.035 3.72048L101.974 3.73889V6.8424H97.1238V5.11347C97.1238 4.30843 97.3038 3.69237 97.6585 3.28151C98.0108 2.87559 98.5147 2.66922 99.1575 2.66922C99.6195 2.66922 100.098 2.77805 100.579 2.99268L100.7 3.04659V0.271914L100.643 0.251045C100.194 0.089602 99.5833 0.00830078 98.826 0.00830078C97.8717 0.00830078 97.0047 0.215975 96.2484 0.627554C95.4918 1.03971 94.8966 1.6281 94.4797 2.37618C94.0642 3.1234 93.8533 3.98641 93.8533 4.94145V6.84225H91.5751V9.47694H93.8533V20.5764H97.1238V9.47694H101.974V16.5304C101.974 19.4354 103.344 20.9075 106.047 20.9075C106.491 20.9075 106.958 20.8555 107.435 20.7536C107.921 20.649 108.252 20.5445 108.447 20.4329L108.49 20.4074V17.7484L108.357 17.8363C108.179 17.9546 107.958 18.0513 107.699 18.1231C107.439 18.1963 107.222 18.233 107.053 18.233C106.42 18.233 105.952 18.0624 105.661 17.7258C105.367 17.3861 105.218 16.792 105.218 15.961V9.47694H108.49ZM84.2716 18.2334C83.0846 18.2334 82.1487 17.8398 81.4891 17.0645C80.8255 16.2852 80.4893 15.1743 80.4893 13.7627C80.4893 12.3064 80.8255 11.1666 81.4894 10.3736C82.1494 9.58577 83.0763 9.18593 84.245 9.18593C85.379 9.18593 86.2817 9.5678 86.9284 10.3215C87.5782 11.0792 87.908 12.2099 87.908 13.6832C87.908 15.1746 87.5979 16.3202 86.9863 17.0865C86.379 17.8471 85.4657 18.2334 84.2716 18.2334ZM84.417 6.51139C82.1523 6.51139 80.3535 7.17499 79.071 8.48378C77.7893 9.79272 77.1394 11.6041 77.1394 13.8681C77.1394 16.0184 77.7738 17.7481 79.025 19.0082C80.2763 20.2687 81.9791 20.9072 84.0859 20.9072C86.2811 20.9072 88.0441 20.2344 89.3261 18.9075C90.6079 17.582 91.2573 15.7877 91.2573 13.5766C91.2573 11.3927 90.6479 9.65012 89.4455 8.39843C88.2425 7.14615 86.5504 6.51139 84.417 6.51139ZM71.8664 6.51139C70.3259 6.51139 69.0516 6.90544 68.0782 7.68236C67.0988 8.46393 66.602 9.48897 66.602 10.7294C66.602 11.3741 66.7092 11.9468 66.9202 12.4326C67.1326 12.92 67.4611 13.3491 67.8976 13.7092C68.3308 14.0665 68.9995 14.4407 69.8855 14.8214C70.6304 15.1279 71.1859 15.3872 71.5388 15.5915C71.8837 15.7918 72.1285 15.9931 72.2667 16.1892C72.4011 16.381 72.4692 16.6436 72.4692 16.9677C72.4692 17.8904 71.7782 18.3394 70.3564 18.3394C69.829 18.3394 69.2274 18.2292 68.5685 18.0121C67.9142 17.7983 67.2966 17.4852 66.7375 17.0838L66.6017 16.9864V20.1351L66.6516 20.1583C67.1143 20.3719 67.6978 20.552 68.3854 20.6938C69.0718 20.8356 69.6954 20.9078 70.2371 20.9078C71.9088 20.9078 73.2549 20.5119 74.2372 19.7303C75.2257 18.9434 75.7267 17.8942 75.7267 16.6109C75.7267 15.6851 75.457 14.8912 74.9255 14.251C74.3975 13.6159 73.4812 13.0329 72.2031 12.5175C71.1849 12.1089 70.5326 11.7696 70.2635 11.5092C70.004 11.2576 69.8723 10.9018 69.8723 10.4512C69.8723 10.0518 70.0349 9.73185 70.3687 9.47273C70.705 9.21231 71.1733 9.07985 71.7605 9.07985C72.3054 9.07985 72.8629 9.16593 73.4174 9.33462C73.9714 9.50331 74.4581 9.72925 74.8643 10.0056L74.9979 10.0969V7.11007L74.9466 7.08804C74.5718 6.92732 74.0777 6.78979 73.4774 6.6782C72.8799 6.56733 72.3379 6.51139 71.8664 6.51139ZM58.0761 18.2334C56.8893 18.2334 55.9531 17.8398 55.2937 17.0645C54.63 16.2852 54.2943 15.1746 54.2943 13.7627C54.2943 12.3064 54.6304 11.1666 55.2944 10.3736C55.9538 9.58577 56.8806 9.18593 58.0499 9.18593C59.1834 9.18593 60.0862 9.5678 60.7329 10.3215C61.3829 11.0792 61.7126 12.2099 61.7126 13.6832C61.7126 15.1746 61.4023 16.3202 60.7908 17.0865C60.1834 17.8471 59.2705 18.2334 58.0761 18.2334ZM58.2219 6.51139C55.9566 6.51139 54.1577 7.17499 52.8758 8.48378C51.5941 9.79272 50.9439 11.6041 50.9439 13.8681C50.9439 16.0193 51.5786 17.7481 52.8299 19.0082C54.0812 20.2687 55.7838 20.9072 57.8906 20.9072C60.0856 20.9072 61.849 20.2344 63.131 18.9075C64.4125 17.582 65.0622 15.7877 65.0622 13.5766C65.0622 11.3927 64.4527 9.65012 63.25 8.39843C62.0467 7.14615 60.3548 6.51139 58.2219 6.51139ZM45.9794 9.22071V6.84225H42.7488V20.5761H45.9794V13.5507C45.9794 12.3561 46.2503 11.3747 46.7848 10.6334C47.3124 9.90098 48.0156 9.52983 48.8741 9.52983C49.1651 9.52983 49.4918 9.5778 49.8455 9.67273C50.1956 9.76707 50.4493 9.86953 50.5988 9.97735L50.7346 10.0758V6.81877L50.6823 6.79631C50.3814 6.66849 49.9558 6.604 49.4173 6.604C48.6054 6.604 47.8789 6.86486 47.2566 7.37846C46.7104 7.8299 46.3156 8.44886 46.0138 9.22071H45.9794ZM36.9634 6.51139C35.4813 6.51139 34.1593 6.82921 33.0348 7.45571C31.9081 8.08365 31.0366 8.98014 30.4438 10.1201C29.8535 11.2573 29.5538 12.5857 29.5538 14.0671C29.5538 15.3647 29.8444 16.5555 30.4187 17.605C30.9933 18.6563 31.8066 19.4787 32.8361 20.0492C33.8642 20.6188 35.0524 20.9077 36.368 20.9077C37.9034 20.9077 39.2142 20.6007 40.2651 19.9954L40.3076 19.971V17.0113L40.1718 17.1104C39.6957 17.4572 39.1637 17.734 38.5913 17.9334C38.0203 18.1327 37.4997 18.2334 37.0432 18.2334C35.7756 18.2334 34.758 17.8368 34.0193 17.0548C33.279 16.2718 32.9037 15.1722 32.9037 13.7887C32.9037 12.3964 33.2951 11.2686 34.0665 10.4365C34.8356 9.60679 35.8552 9.18593 37.0966 9.18593C38.1584 9.18593 39.1932 9.54548 40.1721 10.2556L40.3076 10.354V7.23542L40.2638 7.21079C39.8954 7.00456 39.393 6.83428 38.7693 6.70515C38.1481 6.57632 37.5406 6.51139 36.9634 6.51139ZM27.3288 6.8424H24.0982V20.5761H27.3288V6.8424ZM25.7465 0.991742C25.2148 0.991742 24.7511 1.17275 24.3701 1.53143C23.9875 1.89113 23.7934 2.34401 23.7934 2.87848C23.7934 3.40455 23.9852 3.84917 24.3641 4.19931C24.7406 4.54842 25.2058 4.72537 25.7467 4.72537C26.2874 4.72537 26.7543 4.54842 27.1353 4.19988C27.5188 3.84917 27.7133 3.4047 27.7133 2.87848C27.7133 2.36271 27.524 1.91446 27.1511 1.54593C26.7785 1.17811 26.3058 0.991742 25.7465 0.991742ZM17.686 5.8291V20.5761H20.983V1.41216H16.4198L10.6197 15.6466L4.99108 1.41216H0.242126V20.5759H3.34042V5.82765H3.44679L9.39049 20.5761H11.7287L17.5796 5.8291H17.686Z" fill="#706D6E"/>
</svg>
