<svg width="17" height="17" viewBox="0 0 17 17" fill="none" xmlns="http://www.w3.org/2000/svg">
<path d="M6.74825 0.824177C9.18954 0.356494 11.8572 1.03383 13.6841 2.74329C16.6589 5.40424 16.9823 10.3875 14.444 13.4516C12.9081 15.3869 10.4183 16.4512 7.96081 16.3383C5.61652 16.2738 3.30456 15.1127 1.91415 13.1936C0.345903 11.0809 0.0063813 8.17809 0.895596 5.71066C1.78481 3.19484 4.11294 1.27573 6.74825 0.824177ZM7.23327 3.88831C6.36023 4.11408 5.55185 4.61402 4.96982 5.30748C3.41773 7.14596 3.4824 10.1456 5.14766 11.9034C6.13388 12.9517 7.6698 13.4677 9.09254 13.1775C10.3536 12.9355 11.4853 12.0969 12.0997 10.9681C13.1506 9.03282 12.8434 6.38799 11.1943 4.88818C10.1434 3.92056 8.60751 3.53351 7.23327 3.88831Z" fill="#FCBD06"/>
</svg>
