<svg width="17" height="17" viewBox="0 0 17 17" fill="none" xmlns="http://www.w3.org/2000/svg">
<path d="M6.61063 0.824211C8.74474 0.421036 11.0567 0.872592 12.819 2.14662C14.4195 3.27551 15.5351 5.04948 15.8746 6.98472C16.3112 9.22637 15.7615 11.6777 14.3064 13.4516C12.7381 15.4353 10.1675 16.4996 7.66152 16.3384C5.36573 16.2094 3.13461 15.0643 1.77653 13.1936C0.240618 11.1294 -0.131236 8.29101 0.709476 5.87196C1.55019 3.27551 3.92682 1.29189 6.61063 0.824211ZM7.09565 3.88834C6.22261 4.11412 5.41423 4.61405 4.8322 5.32364C3.26395 7.19437 3.36095 10.2424 5.09088 11.9841C6.0771 12.984 7.56451 13.4516 8.93875 13.1775C10.216 12.9517 11.3316 12.097 11.9459 10.9681C13.013 9.04898 12.7058 6.40415 11.0729 4.90434C10.022 3.93672 8.48606 3.53355 7.09565 3.88834Z" fill="#FA3913"/>
</svg>
