<svg width="63" height="25" viewBox="0 0 63 25" fill="none" xmlns="http://www.w3.org/2000/svg">
<path d="M4.71876 14.0209L2.85294 19.6998H0.45459L6.56125 1.65239H9.35997L15.49 19.6998H13.01L11.0897 14.0209H4.71876ZM10.6116 12.1983L8.85465 7.00338C8.45427 5.82468 8.18995 4.75526 7.92174 3.70926H7.8712C7.60299 4.77868 7.31146 5.87542 6.96551 6.97606L5.20853 12.1944L10.6116 12.1983ZM17.3091 10.9688C17.3091 9.31005 17.2586 7.96742 17.2003 6.73798H19.3071L19.4159 8.96268H19.4665C20.4266 7.38197 21.9465 6.44526 24.0533 6.44526C27.1746 6.44526 29.5186 9.09538 29.5186 13.0335C29.5186 17.6937 26.6926 19.9925 23.6529 19.9925C21.9465 19.9925 20.4538 19.2431 19.6803 17.9591H19.6297V25H17.3091V10.9688ZM19.6258 14.423C19.6258 14.7742 19.6764 15.0904 19.7347 15.387C20.1623 17.0184 21.5733 18.1464 23.2564 18.1464C25.7364 18.1464 27.1785 16.1129 27.1785 13.1389C27.1785 10.5395 25.818 8.32259 23.338 8.32259C21.7404 8.32259 20.2478 9.47397 19.7891 11.242C19.7075 11.5347 19.6297 11.886 19.6297 12.2061L19.6258 14.423ZM31.9441 10.9688C31.9441 9.31005 31.8936 7.96742 31.8353 6.73798H33.9421L34.0509 8.96268H34.1015C35.0616 7.38197 36.5814 6.44526 38.6883 6.44526C41.8096 6.44526 44.1535 9.09538 44.1535 13.0335C44.1535 17.6937 41.3276 19.9925 38.2879 19.9925C36.5814 19.9925 35.0888 19.2431 34.3153 17.9591H34.2647V25H31.9441V10.9688ZM34.2647 14.423C34.2647 14.7742 34.3153 15.0904 34.3736 15.387C34.8011 17.0184 36.2122 18.1464 37.8953 18.1464C40.3753 18.1464 41.8174 16.1129 41.8174 13.1389C41.8174 10.5395 40.4569 8.32259 37.9769 8.32259C36.3793 8.32259 34.8867 9.47397 34.428 11.242C34.3463 11.5347 34.2686 11.886 34.2686 12.2061L34.2647 14.423ZM46.583 0.688354H48.9308V19.6959H46.583V0.688354ZM53.6498 13.6463C53.7003 16.8311 55.7294 18.1464 58.0733 18.1464C59.7525 18.1464 60.7671 17.8537 61.6456 17.479L62.0459 19.1651C61.2219 19.5398 59.807 19.9691 57.7546 19.9691C53.7819 19.9691 51.4069 17.3463 51.4069 13.4355C51.4069 9.52471 53.7003 6.44526 57.4591 6.44526C61.6728 6.44526 62.7923 10.1648 62.7923 12.5495C62.7923 13.0335 62.7417 13.4043 62.7106 13.6463H53.6498ZM60.53 11.9602C60.5572 10.4614 59.9158 8.13135 57.2764 8.13135C54.9014 8.13135 53.8636 10.3287 53.677 11.9602H60.53Z" fill="black"/>
</svg>
