<svg width="108" height="32" viewBox="0 0 108 32" fill="none" xmlns="http://www.w3.org/2000/svg">
<path fill-rule="evenodd" clip-rule="evenodd" d="M66.6624 25.0257C60.5085 29.5758 51.5575 32 43.8372 32C33.0214 32 23.3244 28.0093 15.9398 21.3706C15.3803 20.8485 15.8652 20.1399 16.5738 20.5501C24.5179 25.1748 34.3267 27.9347 44.4712 27.9347C51.2964 27.9347 58.8302 26.5175 65.7673 23.5711C66.8116 23.1609 67.6694 24.2797 66.6624 25.0257Z" fill="#FF9900"/>
<path fill-rule="evenodd" clip-rule="evenodd" d="M69.2358 22.0792C68.4526 21.0722 64.0144 21.5944 62.0377 21.8555C61.441 21.9301 61.3291 21.4079 61.8885 21.0349C65.4316 18.5361 71.2125 19.282 71.8838 20.1025C72.5552 20.9231 71.6974 26.7412 68.378 29.5011C67.8559 29.9114 67.371 29.6876 67.5948 29.1282C68.3407 27.2634 70.0191 23.1235 69.2358 22.0792Z" fill="#FF9900"/>
<path fill-rule="evenodd" clip-rule="evenodd" d="M62.1496 3.50582V1.08158C62.1496 0.708622 62.4107 0.484844 62.7463 0.484844L73.5622 0.484844C73.8978 0.484844 74.1962 0.745918 74.1962 1.08158V3.13286C74.1962 3.46853 73.8978 3.91608 73.3757 4.662L67.7813 12.6434C69.8699 12.6061 72.0703 12.9044 73.9351 13.9487C74.3454 14.1725 74.4573 14.5454 74.4946 14.8811V17.4545C74.4946 17.8275 74.1216 18.2378 73.7114 18.014C70.392 16.2611 65.9538 16.0746 62.2988 18.0513C61.9258 18.2378 61.5156 17.8648 61.5156 17.4918V15.0303C61.5156 14.6573 61.5156 13.986 61.9258 13.3893L68.4153 4.10256H62.7836C62.4479 4.10256 62.1496 3.84149 62.1496 3.50582V3.50582ZM22.7277 18.5361H19.4456C19.1473 18.4988 18.8862 18.275 18.8489 17.9767L18.8489 1.11888C18.8489 0.783217 19.1473 0.522142 19.4829 0.522142L22.5412 0.522142C22.8769 0.522142 23.1006 0.783214 23.1379 1.08158V3.28205H23.2125C23.9957 1.15617 25.5249 0.149182 27.5389 0.149182C29.5901 0.149182 30.8955 1.15617 31.7906 3.28205C32.5738 1.15617 34.4013 0.149182 36.3407 0.149182C37.7207 0.149182 39.2125 0.708622 40.1449 2.01398C41.1892 3.43123 40.9654 5.48252 40.9654 7.31002V17.9767C40.9654 18.3123 40.6671 18.5734 40.3314 18.5734H37.0867C36.751 18.5361 36.4899 18.275 36.4899 17.9767V9.02563C36.4899 8.31701 36.5645 6.5268 36.4153 5.85547C36.1543 4.73659 35.4456 4.40093 34.4759 4.40093C33.6927 4.40093 32.8349 4.92308 32.4992 5.78088C32.1636 6.63869 32.2009 8.05594 32.2009 9.02563V17.9767C32.2009 18.3123 31.9025 18.5734 31.5668 18.5734H28.2848C27.9491 18.5361 27.6881 18.275 27.6881 17.9767L27.6881 9.02563C27.6881 7.16083 27.9864 4.36363 25.6741 4.36363C23.3244 4.36363 23.399 7.04894 23.399 9.02563L23.399 17.9767C23.3617 18.275 23.1006 18.5361 22.7277 18.5361V18.5361ZM83.5202 0.149182C88.406 0.149182 91.054 4.32634 91.054 9.65967C91.054 14.8065 88.1449 18.9091 83.5202 18.9091C78.7463 18.9091 76.1356 14.7319 76.1356 9.51049C76.0983 4.25175 78.7463 0.149182 83.5202 0.149182ZM83.5202 3.61771C81.096 3.61771 80.9468 6.93706 80.9468 8.98834C80.9468 11.0396 80.9095 15.4406 83.4829 15.4406C86.019 15.4406 86.1682 11.8974 86.1682 9.73427C86.1682 8.31702 86.0936 6.6014 85.6834 5.25874C85.3104 4.06527 84.5645 3.61771 83.5202 3.61771ZM97.357 18.5361H94.075C93.7393 18.4988 93.4783 18.2378 93.4783 17.9394V1.04428C93.5155 0.745916 93.7766 0.484844 94.1123 0.484844L97.1706 0.484844C97.4689 0.484844 97.6927 0.708627 97.7673 0.969699V3.54312H97.8419C98.7743 1.23077 100.042 0.149182 102.317 0.149182C103.772 0.149182 105.227 0.671322 106.159 2.12587C107.017 3.46852 107.017 5.74358 107.017 7.38461V18.014C106.979 18.3123 106.718 18.5361 106.383 18.5361H103.101C102.802 18.4988 102.541 18.275 102.504 18.014V8.83915C102.504 6.97435 102.728 4.28904 100.453 4.28904C99.6694 4.28904 98.9235 4.81119 98.5505 5.6317C98.103 6.67599 98.0284 7.68297 98.0284 8.83915V17.9394C97.9911 18.2751 97.6927 18.5361 97.357 18.5361V18.5361ZM53.5342 10.4802C53.5342 11.7483 53.5715 12.8298 52.9375 13.986C52.4153 14.9184 51.5948 15.4779 50.6624 15.4779C49.3943 15.4779 48.6484 14.5082 48.6484 13.0909C48.6484 10.2937 51.1473 9.77155 53.5342 9.77155V10.4802ZM56.8535 18.4988C56.6298 18.6853 56.3314 18.7226 56.0703 18.5734C54.9887 17.6783 54.765 17.2308 54.1682 16.373C52.378 18.2005 51.0727 18.7599 48.7603 18.7599C46.0004 18.7599 43.8372 17.0443 43.8372 13.6503C43.8372 10.965 45.2918 9.17482 47.3431 8.27971C49.1333 7.49649 51.6321 7.34732 53.5342 7.12354V6.71328C53.5342 5.93007 53.6088 4.99767 53.1239 4.32634C52.7137 3.7296 51.9678 3.46853 51.2964 3.46853C50.0284 3.46853 48.9095 4.10257 48.6484 5.44522C48.5738 5.74359 48.3873 6.04195 48.089 6.04195L44.9188 5.70629C44.6577 5.6317 44.3594 5.44522 44.434 5.03496C45.1799 1.15618 48.6484 0 51.7813 0C53.385 0 55.4736 0.410254 56.7417 1.64102C58.3454 3.13286 58.1962 5.14685 58.1962 7.31002V12.4196C58.1962 13.9487 58.8302 14.62 59.427 15.4779C59.6507 15.7762 59.688 16.1492 59.427 16.3357C58.7183 16.8951 57.5249 17.9394 56.8535 18.4988V18.4988ZM10.4573 10.4802C10.4573 11.7483 10.4946 12.8298 9.86055 13.986C9.33841 14.9184 8.51789 15.4779 7.58549 15.4779C6.31742 15.4779 5.57151 14.5082 5.57151 13.0909C5.57151 10.2937 8.07034 9.77155 10.4573 9.77155V10.4802ZM13.7393 18.4988C13.5156 18.6853 13.2172 18.7226 12.9561 18.5734C11.8745 17.6783 11.6508 17.2308 11.054 16.373C9.26381 18.2005 7.95845 18.7599 5.6461 18.7599C2.88619 18.7599 0.723022 17.0443 0.723022 13.6503C0.723022 10.965 2.17757 9.17482 4.22885 8.27971C6.01906 7.49649 8.51789 7.34732 10.42 7.12354V6.71328C10.42 5.93007 10.4946 4.99767 10.0097 4.32634C9.59948 3.7296 8.85356 3.46853 8.18223 3.46853C6.91416 3.46853 5.79528 4.10257 5.53421 5.44522C5.45962 5.74359 5.27314 6.04195 4.97477 6.04195L1.80461 5.70629C1.54353 5.6317 1.24517 5.44522 1.31976 5.03496C2.06568 1.15618 5.53421 0 8.66708 0C10.2708 0 12.3594 0.410254 13.6275 1.64102C15.2312 3.13286 15.082 5.14685 15.082 7.31002V12.4196C15.082 13.9487 15.716 14.62 16.3128 15.4779C16.5365 15.7762 16.5738 16.1492 16.3128 16.3357C15.6041 16.8951 14.4107 17.9394 13.7393 18.4988V18.4988Z" fill="black"/>
</svg>
