<svg width="154" height="50" viewBox="0 0 154 50" fill="none" xmlns="http://www.w3.org/2000/svg">
<g filter="url(#filter0_d_4_3178)">
<rect width="150" height="46" rx="4" fill="#FBFAFC" shape-rendering="crispEdges"/>
<path d="M21.1506 28V17.8182H27.7727V19.3643H22.995V22.1286H27.4297V23.6747H22.995V26.4538H27.8125V28H21.1506ZM31.6465 20.3636L33.1877 23.1825L34.7537 20.3636H36.6579L34.356 24.1818L36.6976 28H34.8035L33.1877 25.2507L31.5868 28H29.6778L32.0045 24.1818L29.7374 20.3636H31.6465ZM38.6499 30.8636V20.3636H40.4198V21.6264H40.5242C40.617 21.4408 40.7479 21.2436 40.917 21.0348C41.086 20.8227 41.3147 20.642 41.603 20.4929C41.8914 20.3404 42.2593 20.2642 42.7067 20.2642C43.2967 20.2642 43.8287 20.415 44.3026 20.7166C44.7799 21.0149 45.1577 21.4574 45.4361 22.044C45.7179 22.6274 45.8587 23.3433 45.8587 24.1918C45.8587 25.0303 45.7212 25.7429 45.4461 26.3295C45.171 26.9162 44.7965 27.3636 44.3225 27.6719C43.8485 27.9801 43.3116 28.1342 42.7117 28.1342C42.2742 28.1342 41.9113 28.0613 41.6229 27.9155C41.3346 27.7696 41.1026 27.594 40.9269 27.3885C40.7546 27.1797 40.6203 26.9825 40.5242 26.7969H40.4496V30.8636H38.6499ZM40.4148 24.1818C40.4148 24.6757 40.4844 25.1082 40.6236 25.4794C40.7662 25.8506 40.97 26.1406 41.2351 26.3494C41.5036 26.5549 41.8284 26.6577 42.2096 26.6577C42.6073 26.6577 42.9404 26.5516 43.2089 26.3395C43.4773 26.1241 43.6795 25.8307 43.8154 25.4595C43.9546 25.085 44.0242 24.6591 44.0242 24.1818C44.0242 23.7079 43.9563 23.2869 43.8204 22.919C43.6845 22.5511 43.4823 22.2628 43.2138 22.054C42.9454 21.8452 42.6106 21.7408 42.2096 21.7408C41.8251 21.7408 41.4986 21.8419 41.2302 22.044C40.9617 22.2462 40.7579 22.5296 40.6187 22.8942C40.4828 23.2588 40.4148 23.688 40.4148 24.1818ZM49.7996 17.8182V28H47.9999V17.8182H49.7996ZM55.5813 28.1491C54.8355 28.1491 54.1892 27.9851 53.6423 27.657C53.0955 27.3288 52.6712 26.8698 52.3696 26.2798C52.0713 25.6899 51.9222 25.0005 51.9222 24.2116C51.9222 23.4228 52.0713 22.7318 52.3696 22.1385C52.6712 21.5452 53.0955 21.0845 53.6423 20.7564C54.1892 20.4283 54.8355 20.2642 55.5813 20.2642C56.327 20.2642 56.9733 20.4283 57.5202 20.7564C58.0671 21.0845 58.4896 21.5452 58.7879 22.1385C59.0896 22.7318 59.2404 23.4228 59.2404 24.2116C59.2404 25.0005 59.0896 25.6899 58.7879 26.2798C58.4896 26.8698 58.0671 27.3288 57.5202 27.657C56.9733 27.9851 56.327 28.1491 55.5813 28.1491ZM55.5912 26.7074C55.9956 26.7074 56.3336 26.5964 56.6054 26.3743C56.8772 26.1489 57.0794 25.8473 57.212 25.4695C57.3478 25.0916 57.4158 24.6707 57.4158 24.2067C57.4158 23.7393 57.3478 23.3168 57.212 22.9389C57.0794 22.5578 56.8772 22.2545 56.6054 22.0291C56.3336 21.8037 55.9956 21.6911 55.5912 21.6911C55.1769 21.6911 54.8322 21.8037 54.5571 22.0291C54.2853 22.2545 54.0815 22.5578 53.9456 22.9389C53.813 23.3168 53.7468 23.7393 53.7468 24.2067C53.7468 24.6707 53.813 25.0916 53.9456 25.4695C54.0815 25.8473 54.2853 26.1489 54.5571 26.3743C54.8322 26.5964 55.1769 26.7074 55.5912 26.7074ZM61.3679 28V20.3636H63.1129V21.6364H63.1925C63.3317 21.1955 63.5703 20.8558 63.9084 20.6172C64.2497 20.3752 64.6392 20.2543 65.0767 20.2543C65.1761 20.2543 65.2872 20.2592 65.4098 20.2692C65.5357 20.2758 65.6401 20.2874 65.723 20.304V21.9595C65.6468 21.933 65.5258 21.9098 65.3601 21.8899C65.1977 21.8667 65.0402 21.8551 64.8878 21.8551C64.5596 21.8551 64.2647 21.9264 64.0028 22.0689C63.7443 22.2081 63.5405 22.402 63.3913 22.6506C63.2422 22.8991 63.1676 23.1858 63.1676 23.5107V28H61.3679ZM70.5849 28.1491C69.8193 28.1491 69.158 27.9901 68.6012 27.6719C68.0477 27.3504 67.6218 26.8963 67.3235 26.3097C67.0252 25.7197 66.8761 25.0253 66.8761 24.2266C66.8761 23.4411 67.0252 22.7517 67.3235 22.1584C67.6251 21.5618 68.0461 21.0978 68.5863 20.7663C69.1266 20.4316 69.7613 20.2642 70.4904 20.2642C70.9611 20.2642 71.4052 20.3404 71.8228 20.4929C72.2437 20.642 72.615 20.8741 72.9365 21.1889C73.2613 21.5038 73.5165 21.9048 73.7021 22.392C73.8877 22.8759 73.9805 23.4527 73.9805 24.1222V24.674H67.7213V23.4609H72.2553C72.252 23.1162 72.1775 22.8097 72.0316 22.5412C71.8858 22.2694 71.682 22.0556 71.4201 21.8999C71.1616 21.7441 70.86 21.6662 70.5153 21.6662C70.1474 21.6662 69.8242 21.7557 69.5458 21.9347C69.2674 22.1103 69.0503 22.3423 68.8945 22.6307C68.7421 22.9157 68.6642 23.2289 68.6609 23.5703V24.6293C68.6609 25.0734 68.7421 25.4545 68.9045 25.7727C69.0669 26.0876 69.2939 26.3295 69.5856 26.4986C69.8773 26.6643 70.2186 26.7472 70.6097 26.7472C70.8716 26.7472 71.1086 26.7107 71.3207 26.6378C71.5328 26.5616 71.7168 26.4505 71.8725 26.3047C72.0283 26.1589 72.146 25.9782 72.2255 25.7628L73.9059 25.9517C73.7999 26.3958 73.5977 26.7836 73.2994 27.1151C73.0044 27.4432 72.6266 27.6984 72.1659 27.8807C71.7052 28.0597 71.1782 28.1491 70.5849 28.1491ZM80.1757 28V20.3636H81.9207V21.6364H82.0003C82.1395 21.1955 82.3781 20.8558 82.7162 20.6172C83.0576 20.3752 83.447 20.2543 83.8845 20.2543C83.9839 20.2543 84.095 20.2592 84.2176 20.2692C84.3435 20.2758 84.4479 20.2874 84.5308 20.304V21.9595C84.4546 21.933 84.3336 21.9098 84.1679 21.8899C84.0055 21.8667 83.848 21.8551 83.6956 21.8551C83.3675 21.8551 83.0725 21.9264 82.8106 22.0689C82.5521 22.2081 82.3483 22.402 82.1991 22.6506C82.05 22.8991 81.9754 23.1858 81.9754 23.5107V28H80.1757ZM89.3927 28.1491C88.6271 28.1491 87.9659 27.9901 87.409 27.6719C86.8555 27.3504 86.4296 26.8963 86.1313 26.3097C85.833 25.7197 85.6839 25.0253 85.6839 24.2266C85.6839 23.4411 85.833 22.7517 86.1313 22.1584C86.433 21.5618 86.8539 21.0978 87.3941 20.7663C87.9344 20.4316 88.5691 20.2642 89.2982 20.2642C89.7689 20.2642 90.213 20.3404 90.6306 20.4929C91.0516 20.642 91.4228 20.8741 91.7443 21.1889C92.0691 21.5038 92.3243 21.9048 92.5099 22.392C92.6955 22.8759 92.7883 23.4527 92.7883 24.1222V24.674H86.5291V23.4609H91.0632C91.0598 23.1162 90.9853 22.8097 90.8394 22.5412C90.6936 22.2694 90.4898 22.0556 90.2279 21.8999C89.9694 21.7441 89.6678 21.6662 89.3231 21.6662C88.9552 21.6662 88.6321 21.7557 88.3536 21.9347C88.0752 22.1103 87.8581 22.3423 87.7024 22.6307C87.5499 22.9157 87.472 23.2289 87.4687 23.5703V24.6293C87.4687 25.0734 87.5499 25.4545 87.7123 25.7727C87.8747 26.0876 88.1018 26.3295 88.3934 26.4986C88.6851 26.6643 89.0265 26.7472 89.4176 26.7472C89.6794 26.7472 89.9164 26.7107 90.1285 26.6378C90.3406 26.5616 90.5246 26.4505 90.6804 26.3047C90.8361 26.1589 90.9538 25.9782 91.0333 25.7628L92.7137 25.9517C92.6077 26.3958 92.4055 26.7836 92.1072 27.1151C91.8122 27.4432 91.4344 27.6984 90.9737 27.8807C90.513 28.0597 89.986 28.1491 89.3927 28.1491ZM94.9108 30.8636V20.3636H96.6807V21.6264H96.7851C96.8779 21.4408 97.0089 21.2436 97.1779 21.0348C97.3469 20.8227 97.5756 20.642 97.864 20.4929C98.1523 20.3404 98.5202 20.2642 98.9677 20.2642C99.5576 20.2642 100.09 20.415 100.564 20.7166C101.041 21.0149 101.419 21.4574 101.697 22.044C101.979 22.6274 102.12 23.3433 102.12 24.1918C102.12 25.0303 101.982 25.7429 101.707 26.3295C101.432 26.9162 101.057 27.3636 100.583 27.6719C100.109 27.9801 99.5725 28.1342 98.9726 28.1342C98.5351 28.1342 98.1722 28.0613 97.8839 27.9155C97.5955 27.7696 97.3635 27.594 97.1878 27.3885C97.0155 27.1797 96.8813 26.9825 96.7851 26.7969H96.7106V30.8636H94.9108ZM96.6758 24.1818C96.6758 24.6757 96.7454 25.1082 96.8846 25.4794C97.0271 25.8506 97.2309 26.1406 97.4961 26.3494C97.7645 26.5549 98.0893 26.6577 98.4705 26.6577C98.8682 26.6577 99.2013 26.5516 99.4698 26.3395C99.7383 26.1241 99.9404 25.8307 100.076 25.4595C100.216 25.085 100.285 24.6591 100.285 24.1818C100.285 23.7079 100.217 23.2869 100.081 22.919C99.9454 22.5511 99.7432 22.2628 99.4748 22.054C99.2063 21.8452 98.8715 21.7408 98.4705 21.7408C98.086 21.7408 97.7596 21.8419 97.4911 22.044C97.2226 22.2462 97.0188 22.5296 96.8796 22.8942C96.7437 23.2588 96.6758 23.688 96.6758 24.1818ZM107.592 28.1491C106.846 28.1491 106.2 27.9851 105.653 27.657C105.106 27.3288 104.682 26.8698 104.38 26.2798C104.082 25.6899 103.933 25.0005 103.933 24.2116C103.933 23.4228 104.082 22.7318 104.38 22.1385C104.682 21.5452 105.106 21.0845 105.653 20.7564C106.2 20.4283 106.846 20.2642 107.592 20.2642C108.338 20.2642 108.984 20.4283 109.531 20.7564C110.078 21.0845 110.5 21.5452 110.798 22.1385C111.1 22.7318 111.251 23.4228 111.251 24.2116C111.251 25.0005 111.1 25.6899 110.798 26.2798C110.5 26.8698 110.078 27.3288 109.531 27.657C108.984 27.9851 108.338 28.1491 107.592 28.1491ZM107.602 26.7074C108.006 26.7074 108.344 26.5964 108.616 26.3743C108.888 26.1489 109.09 25.8473 109.222 25.4695C109.358 25.0916 109.426 24.6707 109.426 24.2067C109.426 23.7393 109.358 23.3168 109.222 22.9389C109.09 22.5578 108.888 22.2545 108.616 22.0291C108.344 21.8037 108.006 21.6911 107.602 21.6911C107.187 21.6911 106.843 21.8037 106.568 22.0291C106.296 22.2545 106.092 22.5578 105.956 22.9389C105.824 23.3168 105.757 23.7393 105.757 24.2067C105.757 24.6707 105.824 25.0916 105.956 25.4695C106.092 25.8473 106.296 26.1489 106.568 26.3743C106.843 26.5964 107.187 26.7074 107.602 26.7074Z" fill="#1D1B1F"/>
<path d="M124.417 19.4592L127.958 23L124.417 26.5408" stroke="#1D1B1F" stroke-width="1.5" stroke-miterlimit="10" stroke-linecap="round" stroke-linejoin="round"/>
<path d="M118.042 23H127.859" stroke="#1D1B1F" stroke-width="1.5" stroke-miterlimit="10" stroke-linecap="round" stroke-linejoin="round"/>
<rect x="0.5" y="0.5" width="149" height="45" rx="3.5" stroke="#302E32" shape-rendering="crispEdges"/>
</g>
<defs>
<filter id="filter0_d_4_3178" x="0" y="0" width="154" height="50" filterUnits="userSpaceOnUse" color-interpolation-filters="sRGB">
<feFlood flood-opacity="0" result="BackgroundImageFix"/>
<feColorMatrix in="SourceAlpha" type="matrix" values="0 0 0 0 0 0 0 0 0 0 0 0 0 0 0 0 0 0 127 0" result="hardAlpha"/>
<feOffset dx="4" dy="4"/>
<feComposite in2="hardAlpha" operator="out"/>
<feColorMatrix type="matrix" values="0 0 0 0 0.121569 0 0 0 0 0.113725 0 0 0 0 0.105882 0 0 0 1 0"/>
<feBlend mode="normal" in2="BackgroundImageFix" result="effect1_dropShadow_4_3178"/>
<feBlend mode="normal" in="SourceGraphic" in2="effect1_dropShadow_4_3178" result="shape"/>
</filter>
</defs>
</svg>
