<svg width="152" height="32" viewBox="0 0 152 32" fill="none" xmlns="http://www.w3.org/2000/svg">
<g clip-path="url(#clip0_4_3507)">
<path d="M150.49 14.4769V11.8423H147.218V7.74632L147.108 7.78023L144.035 8.72048L143.974 8.73889V11.8424H139.124V10.1135C139.124 9.30843 139.304 8.69237 139.659 8.28151C140.011 7.87559 140.515 7.66922 141.157 7.66922C141.619 7.66922 142.098 7.77805 142.579 7.99268L142.7 8.04659V5.27191L142.643 5.25105C142.194 5.0896 141.583 5.0083 140.826 5.0083C139.872 5.0083 139.005 5.21597 138.248 5.62755C137.492 6.03971 136.897 6.6281 136.48 7.37618C136.064 8.1234 135.853 8.98641 135.853 9.94145V11.8423H133.575V14.4769H135.853V25.5764H139.124V14.4769H143.974V21.5304C143.974 24.4354 145.344 25.9075 148.047 25.9075C148.491 25.9075 148.958 25.8555 149.435 25.7536C149.921 25.649 150.252 25.5445 150.447 25.4329L150.49 25.4074V22.7484L150.357 22.8363C150.179 22.9546 149.958 23.0513 149.699 23.1231C149.439 23.1963 149.222 23.233 149.053 23.233C148.42 23.233 147.952 23.0624 147.661 22.7258C147.367 22.3861 147.218 21.792 147.218 20.961V14.4769H150.49ZM126.272 23.2334C125.085 23.2334 124.149 22.8398 123.489 22.0645C122.826 21.2852 122.489 20.1743 122.489 18.7627C122.489 17.3064 122.826 16.1666 123.489 15.3736C124.149 14.5858 125.076 14.1859 126.245 14.1859C127.379 14.1859 128.282 14.5678 128.928 15.3215C129.578 16.0792 129.908 17.2099 129.908 18.6832C129.908 20.1746 129.598 21.3202 128.986 22.0865C128.379 22.8471 127.466 23.2334 126.272 23.2334M126.417 11.5114C124.152 11.5114 122.354 12.175 121.071 13.4838C119.789 14.7927 119.139 16.6041 119.139 18.8681C119.139 21.0184 119.774 22.7481 121.025 24.0082C122.276 25.2687 123.979 25.9072 126.086 25.9072C128.281 25.9072 130.044 25.2344 131.326 23.9075C132.608 22.582 133.257 20.7877 133.257 18.5766C133.257 16.3927 132.648 14.6501 131.446 13.3984C130.243 12.1462 128.55 11.5114 126.417 11.5114M113.866 11.5114C112.326 11.5114 111.052 11.9054 110.078 12.6824C109.099 13.4639 108.602 14.489 108.602 15.7294C108.602 16.3741 108.709 16.9468 108.92 17.4326C109.133 17.92 109.461 18.3491 109.898 18.7092C110.331 19.0665 110.999 19.4407 111.886 19.8214C112.63 20.1279 113.186 20.3872 113.539 20.5915C113.884 20.7918 114.128 20.9931 114.267 21.1892C114.401 21.381 114.469 21.6436 114.469 21.9677C114.469 22.8904 113.778 23.3394 112.356 23.3394C111.829 23.3394 111.227 23.2292 110.568 23.0121C109.914 22.7983 109.297 22.4852 108.738 22.0838L108.602 21.9864V25.1351L108.652 25.1583C109.114 25.3719 109.698 25.552 110.385 25.6938C111.072 25.8356 111.695 25.9078 112.237 25.9078C113.909 25.9078 115.255 25.5119 116.237 24.7303C117.226 23.9434 117.727 22.8942 117.727 21.6109C117.727 20.6851 117.457 19.8912 116.925 19.251C116.398 18.6159 115.481 18.0329 114.203 17.5175C113.185 17.1089 112.533 16.7696 112.263 16.5092C112.004 16.2576 111.872 15.9018 111.872 15.4512C111.872 15.0518 112.035 14.7319 112.369 14.4727C112.705 14.2123 113.173 14.0798 113.761 14.0798C114.305 14.0798 114.863 14.1659 115.417 14.3346C115.971 14.5033 116.458 14.7292 116.864 15.0056L116.998 15.0969V12.1101L116.947 12.088C116.572 11.9273 116.078 11.7898 115.477 11.6782C114.88 11.5673 114.338 11.5114 113.866 11.5114M100.076 23.2334C98.8893 23.2334 97.9531 22.8398 97.2937 22.0645C96.63 21.2852 96.2943 20.1745 96.2943 18.7627C96.2943 17.3064 96.6304 16.1666 97.2944 15.3736C97.9538 14.5858 98.8806 14.1859 100.05 14.1859C101.183 14.1859 102.086 14.5678 102.733 15.3215C103.383 16.0792 103.713 17.2099 103.713 18.6832C103.713 20.1746 103.402 21.3202 102.791 22.0865C102.183 22.8471 101.271 23.2334 100.076 23.2334M100.222 11.5114C97.9566 11.5114 96.1577 12.175 94.8758 13.4838C93.5941 14.7927 92.9439 16.6041 92.9439 18.8681C92.9439 21.0193 93.5786 22.7481 94.8299 24.0082C96.0812 25.2687 97.7838 25.9072 99.8906 25.9072C102.086 25.9072 103.849 25.2344 105.131 23.9075C106.413 22.582 107.062 20.7877 107.062 18.5766C107.062 16.3927 106.453 14.6501 105.25 13.3984C104.047 12.1462 102.355 11.5114 100.222 11.5114M87.9794 14.2207V11.8423H84.7488V25.5761H87.9794V18.5507C87.9794 17.3561 88.2503 16.3747 88.7848 15.6334C89.3124 14.901 90.0156 14.5298 90.8741 14.5298C91.1651 14.5298 91.4918 14.5778 91.8455 14.6727C92.1956 14.7671 92.4493 14.8695 92.5988 14.9774L92.7346 15.0758V11.8188L92.6823 11.7963C92.3814 11.6685 91.9558 11.604 91.4173 11.604C90.6054 11.604 89.8789 11.8649 89.2566 12.3785C88.7104 12.8299 88.3156 13.4489 88.0138 14.2207H87.9794ZM78.9634 11.5114C77.4813 11.5114 76.1593 11.8292 75.0348 12.4557C73.9081 13.0837 73.0366 13.9801 72.4438 15.1201C71.8535 16.2573 71.5538 17.5857 71.5538 19.0671C71.5538 20.3647 71.8444 21.5555 72.4187 22.605C72.9933 23.6563 73.8066 24.4787 74.8361 25.0492C75.8642 25.6188 77.0524 25.9077 78.368 25.9077C79.9033 25.9077 81.2142 25.6007 82.2651 24.9954L82.3076 24.971V22.0113L82.1718 22.1104C81.6957 22.4572 81.1637 22.734 80.5913 22.9334C80.0203 23.1327 79.4997 23.2334 79.0432 23.2334C77.7756 23.2334 76.758 22.8368 76.0193 22.0548C75.279 21.2718 74.9037 20.1722 74.9037 18.7887C74.9037 17.3964 75.2951 16.2686 76.0665 15.4365C76.8356 14.6068 77.8552 14.1859 79.0966 14.1859C80.1584 14.1859 81.1932 14.5455 82.1721 15.2556L82.3076 15.354V12.2354L82.2638 12.2108C81.8954 12.0046 81.393 11.8343 80.7693 11.7052C80.1481 11.5763 79.5406 11.5114 78.9634 11.5114M69.3288 11.8424H66.0982V25.5761H69.3288V11.8424V11.8424ZM67.7465 5.99174C67.2148 5.99174 66.7511 6.17275 66.3701 6.53143C65.9875 6.89113 65.7934 7.34401 65.7934 7.87848C65.7934 8.40455 65.9852 8.84917 66.3641 9.19931C66.7406 9.54842 67.2058 9.72537 67.7467 9.72537C68.2874 9.72537 68.7543 9.54842 69.1353 9.19988C69.5188 8.84917 69.7133 8.4047 69.7133 7.87848C69.7133 7.36271 69.524 6.91446 69.1511 6.54593C68.7785 6.17811 68.3058 5.99174 67.7465 5.99174ZM59.686 10.8291V25.5761H62.983V6.41216H58.4198L52.6197 20.6466L46.9911 6.41216H42.2421V25.5759H45.3404V10.8277H45.4468L51.3905 25.5761H53.7287L59.5796 10.8291H59.686V10.8291Z" fill="#706D6E"/>
<path d="M15.8747 15.2059H0.677002V0.00817871H15.8747V15.2059Z" fill="#F1511B"/>
<path d="M32.6547 15.2059H17.4573V0.00817871H32.6547V15.2059Z" fill="#80CC28"/>
<path d="M15.8743 31.9917H0.677002V16.7942H15.8743V31.9917Z" fill="#00ADEF"/>
<path d="M32.6547 31.9917H17.4573V16.7942H32.6547V31.9917Z" fill="#FBBC09"/>
</g>
<defs>
<clipPath id="clip0_4_3507">
<rect width="150.4" height="32" fill="white" transform="translate(0.677002)"/>
</clipPath>
</defs>
</svg>
