<svg width="97" height="32" viewBox="0 0 97 32" fill="none" xmlns="http://www.w3.org/2000/svg">
<g clip-path="url(#clip0_4_3500)">
<path d="M12.1935 0.00268555H13.0504C16.0252 0.0671935 18.9515 1.26059 21.0533 3.37323C20.2773 4.16345 19.4851 4.92142 18.7252 5.71164C17.545 4.64726 16.1222 3.82478 14.5701 3.5345C12.2743 3.05069 9.8007 3.48612 7.87676 4.7924C5.77498 6.1632 4.35224 8.48548 4.04505 10.969C3.70554 13.4203 4.40074 16.0007 6.00133 17.9036C7.53724 19.7583 9.88154 20.9194 12.3067 21C14.5701 21.129 16.9306 20.4356 18.5797 18.8551C19.8731 17.7424 20.4713 16.049 20.6653 14.4041C17.9815 14.4041 15.2977 14.4202 12.6139 14.4041V11.0819H23.915C24.497 14.646 23.6563 18.6616 20.9401 21.2097C19.1294 23.0159 16.6234 24.0803 14.0689 24.2899C11.5953 24.5318 9.04082 24.0642 6.84204 22.8708C4.20673 21.4677 2.10495 19.097 1.07023 16.3071C0.100175 13.7429 0.0840072 10.84 0.989389 8.25971C1.81393 5.90517 3.39835 3.82478 5.43546 2.37335C7.39174 0.938051 9.76836 0.147828 12.1935 0.00268555Z" fill="#3780FF"/>
<path d="M77.0253 0.841431H80.4851V23.8708C79.3372 23.8708 78.1732 23.8869 77.0253 23.8546C77.0414 16.1943 77.0253 8.51788 77.0253 0.841431V0.841431Z" fill="#38B137"/>
<path d="M31.6106 8.82421C33.7447 8.42104 36.0567 8.87259 37.819 10.1466C39.4195 11.2755 40.5351 13.0495 40.8746 14.9847C41.3112 17.2264 40.7615 19.6777 39.3064 21.4516C37.7381 23.4353 35.1675 24.4996 32.6615 24.3384C30.3657 24.2094 28.1346 23.0643 26.7765 21.1936C25.2406 19.1294 24.8688 16.291 25.7095 13.872C26.5502 11.2755 28.9268 9.29189 31.6106 8.82421M32.0957 11.8883C31.2226 12.1141 30.4142 12.6141 29.8322 13.3236C28.2639 15.1944 28.361 18.2424 30.0909 19.9841C31.0771 20.984 32.5645 21.4516 33.9388 21.1775C35.216 20.9517 36.3316 20.097 36.9459 18.9681C38.013 17.049 37.7058 14.4042 36.0729 12.9043C35.022 11.9367 33.4861 11.5335 32.0957 11.8883Z" fill="#FA3913"/>
<path d="M48.7482 8.82418C51.1895 8.35649 53.8572 9.03383 55.6841 10.7433C58.6589 13.4042 58.9823 18.3875 56.444 21.4516C54.9081 23.3869 52.4183 24.4512 49.9608 24.3383C47.6165 24.2738 45.3046 23.1127 43.9142 21.1936C42.3459 19.0809 42.0064 16.1781 42.8956 13.7107C43.7848 11.1948 46.1129 9.27573 48.7482 8.82418M49.2333 11.8883C48.3602 12.1141 47.5518 12.614 46.9698 13.3075C45.4177 15.146 45.4824 18.1456 47.1477 19.9034C48.1339 20.9517 49.6698 21.4677 51.0925 21.1775C52.3536 20.9355 53.4853 20.0969 54.0997 18.9681C55.1506 17.0328 54.8434 14.388 53.1943 12.8882C52.1434 11.9206 50.6075 11.5335 49.2333 11.8883Z" fill="#FCBD06"/>
<path d="M63.2829 9.75956C65.1421 8.59841 67.6158 8.27587 69.6206 9.27575C70.2511 9.54991 70.7685 10.0176 71.2696 10.4853C71.2858 10.0498 71.2696 9.59829 71.2858 9.14673C72.369 9.16286 73.4523 9.14673 74.5517 9.16286V23.3869C74.5355 25.5318 73.9858 27.8057 72.4337 29.37C70.7361 31.0956 68.1331 31.6278 65.7889 31.273C63.2829 30.902 61.1003 29.0797 60.1302 26.7735C61.1003 26.3059 62.1188 25.9349 63.1212 25.4995C63.6871 26.8219 64.835 27.9508 66.2739 28.2088C67.7128 28.4669 69.378 28.1121 70.3158 26.9187C71.3182 25.693 71.3182 24.0158 71.2696 22.516C70.5259 23.2417 69.6691 23.8868 68.6343 24.1287C66.3871 24.7577 63.9134 23.9836 62.1835 22.4676C60.4374 20.9517 59.4027 18.6133 59.4997 16.291C59.5482 13.6623 61.0356 11.1304 63.2829 9.75956M66.6296 11.8238C65.6433 11.9851 64.7218 12.5334 64.0913 13.2914C62.5715 15.0976 62.5715 17.9843 64.1074 19.7583C64.9805 20.8065 66.3871 21.3871 67.7451 21.242C69.0224 21.113 70.2026 20.3066 70.8331 19.1938C71.9002 17.307 71.7223 14.7428 70.2834 13.0978C69.3942 12.0818 67.9715 11.5819 66.6296 11.8238V11.8238Z" fill="#3780FF"/>
<path d="M84.6402 10.5821C86.5803 8.77587 89.5713 8.16304 92.0611 9.11453C94.4215 10.0015 95.9251 12.2432 96.685 14.5493C93.1766 16.0008 89.6844 17.4361 86.1761 18.8875C86.6611 19.8067 87.4048 20.6453 88.4072 20.984C89.8138 21.4839 91.4952 21.3065 92.6754 20.3712C93.1443 20.0164 93.5162 19.5487 93.8718 19.0971C94.7611 19.6938 95.6503 20.2744 96.5395 20.8711C95.2784 22.758 93.1605 24.0804 90.8808 24.29C88.3587 24.5964 85.6749 23.6288 84.042 21.6613C81.3582 18.565 81.6168 13.3721 84.6402 10.5821M86.3701 13.5656C85.8204 14.3558 85.5941 15.3234 85.6102 16.2749C87.9545 15.3073 90.2988 14.3397 92.6431 13.3559C92.2551 12.4528 91.3174 11.9045 90.3635 11.7594C88.8276 11.4852 87.227 12.3077 86.3701 13.5656V13.5656Z" fill="#FA3913"/>
</g>
<defs>
<clipPath id="clip0_4_3500">
<rect width="96.6279" height="32" fill="white" transform="translate(0.32605)"/>
</clipPath>
</defs>
</svg>
