<svg width="160" height="32" viewBox="0 0 160 32" fill="none" xmlns="http://www.w3.org/2000/svg">
<path d="M59.0937 1.01196H65.1135L75.3493 19.5279L85.585 1.01196H91.4746V31.437H86.5631V8.11853L77.5877 24.2655H72.9805L64.0051 8.11853V31.437H59.0937V1.01196Z" fill="#1C2B33"/>
<path d="M107.317 31.9805C105.042 31.9805 103.043 31.477 101.319 30.4701C99.5946 29.4631 98.2508 28.0687 97.2875 26.2866C96.3239 24.5045 95.8421 22.4617 95.8423 20.1582C95.8423 17.8257 96.3132 15.7611 97.2549 13.9645C98.1966 12.1682 99.5042 10.7628 101.178 9.74827C102.851 8.73439 104.774 8.22732 106.947 8.22705C109.106 8.22705 110.964 8.73773 112.522 9.75909C114.079 10.7807 115.278 12.2115 116.118 14.0513C116.959 15.8914 117.379 18.0502 117.379 20.5276V21.8748H100.71C101.015 23.7296 101.764 25.1893 102.96 26.2539C104.155 27.3188 105.665 27.8512 107.491 27.8511C108.954 27.8511 110.214 27.6338 111.272 27.1992C112.33 26.7645 113.322 26.1054 114.25 25.2217L116.857 28.4162C114.264 30.7926 111.084 31.9807 107.317 31.9805V31.9805ZM110.903 13.9317C109.874 12.8815 108.527 12.3563 106.861 12.3561C105.238 12.3561 103.88 12.8922 102.786 13.9645C101.692 15.0366 101 16.4782 100.71 18.2891H112.663C112.518 16.4346 111.931 14.9821 110.903 13.9317V13.9317Z" fill="#1C2B33"/>
<path d="M123.334 12.791H118.814V8.77045H123.334V2.12048H128.072V8.77045H134.939V12.791H128.072V22.9833C128.072 24.6783 128.361 25.888 128.941 26.6125C129.52 27.3371 130.513 27.6993 131.918 27.699C132.541 27.699 133.07 27.6737 133.505 27.623C133.939 27.5725 134.417 27.5037 134.939 27.4165V31.3934C134.344 31.5656 133.737 31.6964 133.124 31.7848C132.423 31.888 131.714 31.9389 131.005 31.9369C125.891 31.9369 123.334 29.1407 123.334 23.5483V12.791Z" fill="#1C2B33"/>
<path d="M159.627 31.437H154.977V28.2641C154.151 29.4523 153.1 30.3687 151.825 31.0132C150.55 31.6577 149.102 31.9801 147.479 31.9805C145.48 31.9805 143.708 31.4697 142.165 30.4481C140.622 29.4268 139.409 28.0215 138.525 26.2323C137.641 24.4429 137.2 22.3965 137.2 20.0929C137.2 17.7749 137.649 15.7247 138.547 13.9425C139.445 12.1607 140.688 10.7626 142.274 9.74827C143.861 8.73439 145.682 8.22732 147.74 8.22705C149.29 8.22705 150.681 8.52771 151.912 9.12906C153.127 9.71673 154.179 10.5935 154.977 11.6825V8.77047H159.627V31.437ZM154.89 16.7027C154.382 15.4132 153.582 14.3954 152.488 13.6491C151.394 12.9031 150.13 12.5301 148.696 12.5301C146.667 12.5301 145.052 13.211 143.85 14.5728C142.647 15.9347 142.046 17.7747 142.046 20.0929C142.046 22.4257 142.625 24.2729 143.785 25.6347C144.943 26.9966 146.515 27.6775 148.5 27.6774C149.963 27.6774 151.267 27.3007 152.412 26.5472C153.556 25.7942 154.382 24.7801 154.89 23.5048L154.89 16.7027Z" fill="#1C2B33"/>
<path d="M6.00381 21.1032C6.00381 22.9428 6.40759 24.3552 6.93533 25.2096C7.62728 26.3288 8.65931 26.8029 9.71146 26.8029C11.0685 26.8029 12.31 26.4662 14.7024 23.1573C16.6191 20.5051 18.8775 16.7824 20.3971 14.4486L22.9705 10.4947C24.7581 7.7487 26.8273 4.69612 29.1996 2.62701C31.1364 0.938226 33.2256 0 35.3282 0C38.8582 0 42.2208 2.04565 44.7942 5.8823C47.6105 10.0842 48.9776 15.3768 48.9776 20.8385C48.9776 24.0855 48.3376 26.4712 47.2486 28.356C46.1965 30.1788 44.1458 32 40.6962 32V26.8029C43.6499 26.8029 44.387 24.0888 44.387 20.9826C44.387 16.5562 43.355 11.644 41.0815 8.13402C39.4681 5.6444 37.3772 4.12313 35.0769 4.12313C32.5889 4.12313 30.5868 5.99957 28.3368 9.34533C27.1406 11.1229 25.9125 13.2892 24.5336 15.7336L23.0157 18.4226C19.9665 23.8291 19.1942 25.0605 17.6696 27.0928C14.9973 30.6513 12.7154 32 9.71146 32C6.14789 32 3.89449 30.457 2.49889 28.1315C1.35962 26.2367 0.800049 23.7504 0.800049 20.9173L6.00381 21.1032Z" fill="#0081FB"/>
<path d="M4.90308 6.2492C7.28883 2.57171 10.7318 0 14.6807 0C16.9676 0 19.2411 0.676864 21.6151 2.6153C24.212 4.73467 26.9797 8.22452 30.4327 13.9761L31.6708 16.0402C34.6597 21.0195 36.3602 23.5812 37.3554 24.7891C38.6354 26.3405 39.5318 26.8029 40.6962 26.8029C43.6499 26.8029 44.387 24.0888 44.387 20.9826L48.9776 20.8385C48.9776 24.0855 48.3376 26.4712 47.2486 28.356C46.1965 30.1788 44.1458 32 40.6962 32C38.5516 32 36.6518 31.5342 34.5508 29.5523C32.9357 28.031 31.0476 25.3286 29.595 22.8993L25.2742 15.6817C23.1062 12.0595 21.1175 9.35873 19.9665 8.1357C18.7284 6.82052 17.1368 5.23224 14.5969 5.23224C12.5412 5.23224 10.7954 6.67476 9.33449 8.88126L4.90308 6.2492Z" fill="url(#paint0_linear_4_3513)"/>
<path d="M14.5969 5.23224C12.5412 5.23224 10.7954 6.67476 9.33449 8.88126C7.26873 11.9992 6.00381 16.6434 6.00381 21.1032C6.00381 22.9428 6.40759 24.3552 6.93533 25.2096L2.49889 28.1315C1.35962 26.2367 0.800049 23.7504 0.800049 20.9173C0.800049 15.7654 2.21407 10.3958 4.90308 6.2492C7.28884 2.57171 10.7318 0 14.6807 0L14.5969 5.23224Z" fill="url(#paint1_linear_4_3513)"/>
<defs>
<linearGradient id="paint0_linear_4_3513" x1="11.0199" y1="19.6021" x2="44.1927" y2="21.2775" gradientUnits="userSpaceOnUse">
<stop stop-color="#0064E1"/>
<stop offset="0.4" stop-color="#0064E1"/>
<stop offset="0.83" stop-color="#0073EE"/>
<stop offset="1" stop-color="#0082FB"/>
</linearGradient>
<linearGradient id="paint1_linear_4_3513" x1="8.33931" y1="23.288" x2="8.33931" y2="11.0576" gradientUnits="userSpaceOnUse">
<stop stop-color="#0082FB"/>
<stop offset="1" stop-color="#0064E0"/>
</linearGradient>
</defs>
</svg>
