<svg width="26" height="25" viewBox="0 0 26 25" fill="none" xmlns="http://www.w3.org/2000/svg">
<path d="M12.7183 6.09032C9.17037 6.09032 6.3086 8.95208 6.3086 12.5C6.3086 16.0479 9.17037 18.9097 12.7183 18.9097C16.2662 18.9097 19.128 16.0479 19.128 12.5C19.128 8.95208 16.2662 6.09032 12.7183 6.09032ZM12.7183 16.6671C10.4255 16.6671 8.55115 14.7983 8.55115 12.5C8.55115 10.2017 10.4199 8.33287 12.7183 8.33287C15.0166 8.33287 16.8854 10.2017 16.8854 12.5C16.8854 14.7983 15.011 16.6671 12.7183 16.6671ZM20.8852 5.82813C20.8852 6.65932 20.2158 7.32316 19.3902 7.32316C18.559 7.32316 17.8951 6.65374 17.8951 5.82813C17.8951 5.00251 18.5645 4.33309 19.3902 4.33309C20.2158 4.33309 20.8852 5.00251 20.8852 5.82813ZM25.1304 7.34548C25.0356 5.3428 24.5782 3.56884 23.111 2.10727C21.6494 0.64571 19.8755 0.188274 17.8728 0.0878612C15.8088 -0.0292871 9.62222 -0.0292871 7.55818 0.0878612C5.56108 0.182696 3.78712 0.640132 2.31998 2.1017C0.852839 3.56326 0.400982 5.33722 0.300569 7.3399C0.18342 9.40394 0.18342 15.5905 0.300569 17.6545C0.395403 19.6572 0.852839 21.4312 2.31998 22.8927C3.78712 24.3543 5.55551 24.8117 7.55818 24.9121C9.62222 25.0293 15.8088 25.0293 17.8728 24.9121C19.8755 24.8173 21.6494 24.3599 23.111 22.8927C24.5726 21.4312 25.03 19.6572 25.1304 17.6545C25.2476 15.5905 25.2476 9.40952 25.1304 7.34548ZM22.4639 19.8692C22.0288 20.9626 21.1864 21.8049 20.0875 22.2456C18.4418 22.8983 14.5369 22.7477 12.7183 22.7477C10.8997 22.7477 6.98918 22.8927 5.3491 22.2456C4.25572 21.8105 3.41337 20.9681 2.97267 19.8692C2.31998 18.2235 2.4706 14.3186 2.4706 12.5C2.4706 10.6814 2.32556 6.77089 2.97267 5.13082C3.40779 4.03743 4.25014 3.19508 5.3491 2.75438C6.99476 2.1017 10.8997 2.25232 12.7183 2.25232C14.5369 2.25232 18.4474 2.10727 20.0875 2.75438C21.1809 3.1895 22.0232 4.03185 22.4639 5.13082C23.1166 6.77647 22.966 10.6814 22.966 12.5C22.966 14.3186 23.1166 18.2291 22.4639 19.8692Z" fill="#FBFAFC"/>
</svg>
