<svg width="40" height="40" viewBox="0 0 40 40" fill="none" xmlns="http://www.w3.org/2000/svg">
<path d="M20 3.22581C29.2704 3.22581 36.7742 10.7281 36.7742 20C36.7742 29.2704 29.2719 36.7742 20 36.7742C10.7296 36.7742 3.22581 29.2719 3.22581 20C3.22581 10.7296 10.7281 3.22581 20 3.22581ZM20 0C8.95427 0 0 8.95427 0 20C0 31.0457 8.95427 40 20 40C31.0457 40 40 31.0457 40 20C40 8.95427 31.0457 0 20 0ZM20 4.51613C11.4485 4.51613 4.51613 11.4485 4.51613 20C4.51613 28.5515 11.4485 35.4839 20 35.4839C28.5515 35.4839 35.4839 28.5515 35.4839 20C35.4839 11.4485 28.5515 4.51613 20 4.51613ZM20 8.06452C21.6034 8.06452 22.9032 9.36435 22.9032 10.9677C22.9032 12.5711 21.6034 13.871 20 13.871C18.3966 13.871 17.0968 12.5711 17.0968 10.9677C17.0968 9.36435 18.3966 8.06452 20 8.06452ZM29.4952 15.9696C27.1798 16.5163 25.0185 16.9977 22.871 17.2444C22.9397 25.3914 23.8635 27.1679 24.8902 29.7944C25.1819 30.5412 24.813 31.383 24.0662 31.6747C23.3194 31.9664 22.4776 31.5975 22.1859 30.8507C21.4839 29.0517 20.808 27.5736 20.3906 24.5161H19.6095C19.1928 27.5686 18.5181 29.049 17.8142 30.8507C17.5227 31.5971 16.6811 31.9665 15.934 31.6747C15.1872 31.383 14.8183 30.5411 15.11 29.7944C16.1352 27.1702 17.0604 25.396 17.1291 17.2444C14.9816 16.9977 12.8204 16.5164 10.5048 15.9696C9.81129 15.8058 9.38177 15.1109 9.54556 14.4173C9.70935 13.7236 10.4042 13.2942 11.0979 13.458C18.8952 15.299 21.1207 15.2953 28.9023 13.458C29.5958 13.2943 30.2909 13.7236 30.4547 14.4173C30.6183 15.1109 30.1888 15.8059 29.4952 15.9696Z" fill="black"/>
</svg>
