<svg width="40" height="40" viewBox="0 0 40 40" fill="none" xmlns="http://www.w3.org/2000/svg">
<path d="M15.625 22.4961H6.875C5.20312 22.4961 4.36719 24.5117 5.54687 25.6992L8.11719 28.1211L0.367187 35.8789C-0.117188 36.3633 -0.117188 37.1602 0.367187 37.6445L2.35156 39.6289C2.83594 40.1133 3.63281 40.1133 4.11719 39.6289L11.875 31.8711L14.3047 34.4492C15.4844 35.6289 17.5 34.793 17.5 33.1211V24.3711C17.5 23.332 16.6641 22.4961 15.625 22.4961ZM24.375 17.4961H33.125C34.7969 17.4961 35.6328 15.4727 34.4531 14.293L31.875 11.8711L39.6328 4.11328C40.1172 3.62891 40.1172 2.83203 39.6328 2.34766L37.6484 0.363281C37.1641 -0.121094 36.3672 -0.121094 35.8828 0.363281L28.125 8.12109L25.6953 5.54297C24.5156 4.36328 22.5 5.19922 22.5 6.87109V15.6211C22.5 16.6602 23.3359 17.4961 24.375 17.4961ZM31.875 28.1211L34.4531 25.6914C35.6328 24.5117 34.7969 22.4961 33.125 22.4961H24.375C23.3359 22.4961 22.5 23.332 22.5 24.3711V33.1211C22.5 34.793 24.5234 35.6289 25.7031 34.4492L28.125 31.8789L35.8828 39.6367C36.3672 40.1211 37.1641 40.1211 37.6484 39.6367L39.6328 37.6523C40.1172 37.168 40.1172 36.3711 39.6328 35.8867L31.875 28.1211ZM14.2969 5.55078L11.875 8.12109L4.11719 0.363281C3.63281 -0.121094 2.83594 -0.121094 2.35156 0.363281L0.367187 2.34766C-0.117188 2.83203 -0.117188 3.62891 0.367187 4.11328L8.125 11.8711L5.54687 14.3008C4.36719 15.4805 5.20312 17.4961 6.875 17.4961H15.625C16.6641 17.4961 17.5 16.6602 17.5 15.6211V6.87109C17.5 5.20703 15.4766 4.37109 14.2969 5.55078Z" fill="black"/>
</svg>
