<svg width="96" height="32" viewBox="0 0 96 32" fill="none" xmlns="http://www.w3.org/2000/svg">
<path d="M22.4112 16.9102C22.397 14.2883 23.5792 12.3094 25.972 10.852C24.6331 8.9302 22.6107 7.87286 19.9401 7.66568C17.412 7.46564 14.6489 9.14452 13.6376 9.14452C12.5694 9.14452 10.1196 7.73712 8.19681 7.73712C4.22303 7.80142 0 10.9163 0 17.2531C0 19.1249 0.34183 21.0586 1.02549 23.0542C1.93704 25.6761 5.22715 32.1058 8.6597 31.9987C10.4543 31.9558 11.7219 30.7199 14.0578 30.7199C16.3224 30.7199 17.4974 31.9987 19.4986 31.9987C22.9596 31.9487 25.9364 26.1047 26.8052 23.4757C22.162 21.2824 22.4112 17.046 22.4112 16.9102V16.9102ZM18.3805 5.17951C20.3247 2.86481 20.1466 0.757281 20.0897 0C18.3734 0.100018 16.3865 1.17164 15.2542 2.49331C14.0079 3.90785 13.2744 5.65817 13.4311 7.62996C15.2898 7.77284 16.9847 6.81553 18.3805 5.17951V5.17951Z" fill="black"/>
<path d="M37.7188 21.0209L35.8529 26.6998H33.4546L39.5612 8.65239H42.36L48.49 26.6998H46.01L44.0897 21.0209H37.7188ZM43.6116 19.1983L41.8546 14.0034C41.4543 12.8247 41.1899 11.7553 40.9217 10.7093H40.8712C40.603 11.7787 40.3115 12.8754 39.9655 13.9761L38.2085 19.1944L43.6116 19.1983ZM50.3091 17.9688C50.3091 16.31 50.2586 14.9674 50.2003 13.738H52.3071L52.4159 15.9627H52.4665C53.4266 14.382 54.9465 13.4453 57.0533 13.4453C60.1746 13.4453 62.5186 16.0954 62.5186 20.0335C62.5186 24.6937 59.6926 26.9925 56.6529 26.9925C54.9465 26.9925 53.4538 26.2431 52.6803 24.9591H52.6297V32H50.3091V17.9688ZM52.6258 21.423C52.6258 21.7742 52.6764 22.0904 52.7347 22.387C53.1623 24.0184 54.5733 25.1464 56.2564 25.1464C58.7364 25.1464 60.1785 23.1129 60.1785 20.1389C60.1785 17.5395 58.818 15.3226 56.338 15.3226C54.7404 15.3226 53.2478 16.474 52.7891 18.242C52.7075 18.5347 52.6297 18.886 52.6297 19.2061L52.6258 21.423ZM64.9441 17.9688C64.9441 16.31 64.8936 14.9674 64.8353 13.738H66.9421L67.0509 15.9627H67.1015C68.0616 14.382 69.5814 13.4453 71.6883 13.4453C74.8096 13.4453 77.1535 16.0954 77.1535 20.0335C77.1535 24.6937 74.3276 26.9925 71.2879 26.9925C69.5814 26.9925 68.0888 26.2431 67.3153 24.9591H67.2647V32H64.9441V17.9688ZM67.2647 21.423C67.2647 21.7742 67.3153 22.0904 67.3736 22.387C67.8011 24.0184 69.2122 25.1464 70.8953 25.1464C73.3753 25.1464 74.8174 23.1129 74.8174 20.1389C74.8174 17.5395 73.4569 15.3226 70.9769 15.3226C69.3793 15.3226 67.8867 16.474 67.428 18.242C67.3463 18.5347 67.2686 18.886 67.2686 19.2061L67.2647 21.423ZM79.583 7.68835H81.9308V26.6959H79.583V7.68835ZM86.6498 20.6463C86.7003 23.8311 88.7294 25.1464 91.0733 25.1464C92.7525 25.1464 93.7671 24.8537 94.6456 24.479L95.0459 26.1651C94.2219 26.5398 92.807 26.9691 90.7546 26.9691C86.7819 26.9691 84.4069 24.3463 84.4069 20.4355C84.4069 16.5247 86.7003 13.4453 90.4591 13.4453C94.6728 13.4453 95.7923 17.1648 95.7923 19.5495C95.7923 20.0335 95.7417 20.4043 95.7106 20.6463H86.6498ZM93.53 18.9602C93.5572 17.4614 92.9158 15.1313 90.2764 15.1313C87.9014 15.1313 86.8636 17.3287 86.677 18.9602H93.53Z" fill="black"/>
</svg>
