<svg width="26" height="25" viewBox="0 0 26 25" fill="none" xmlns="http://www.w3.org/2000/svg">
<path d="M5.81437 25H0.631217V8.30878H5.81437V25ZM3.22 6.03194C1.5626 6.03194 0.218262 4.65914 0.218262 3.00174C0.218262 2.20563 0.534516 1.44213 1.09745 0.87919C1.66039 0.316254 2.42389 0 3.22 0C4.01611 0 4.77962 0.316254 5.34255 0.87919C5.90549 1.44213 6.22174 2.20563 6.22174 3.00174C6.22174 4.65914 4.87685 6.03194 3.22 6.03194ZM25.2132 25H20.0413V16.8748C20.0413 14.9384 20.0022 12.4551 17.3464 12.4551C14.6516 12.4551 14.2387 14.5589 14.2387 16.7353V25H9.06109V8.30878H14.0322V10.5856H14.1047C14.7967 9.2742 16.487 7.89024 19.0089 7.89024C24.2545 7.89024 25.2188 11.3446 25.2188 15.8313V25H25.2132Z" fill="#FBFAFC"/>
</svg>
