<svg width="42" height="40" viewBox="0 0 42 40" fill="none" xmlns="http://www.w3.org/2000/svg">
<path d="M0.310364 20.9013C0.502315 9.56785 8.43907 1.50257 18.1535 0.195635C29.7373 -1.35666 39.4851 6.52167 41.3545 16.9788C43.1321 26.8935 37.6824 36.1739 28.7024 39.846C27.9263 40.1632 27.5006 39.9879 27.2002 39.2034C25.7147 35.3394 24.2291 31.4725 22.7436 27.6029C22.4849 26.9269 22.6601 26.5013 23.3278 26.2008C25.3475 25.2828 26.6077 23.7472 26.9415 21.5439C27.0673 20.7359 27.0255 19.9106 26.8189 19.1194C26.6123 18.3281 26.2451 17.5878 25.7403 16.9445C25.2355 16.3011 24.6037 15.7684 23.8843 15.3795C23.165 14.9906 22.3733 14.7538 21.5585 14.6838C18.3037 14.4 15.5663 16.6617 15.0906 19.6661C14.6566 22.4202 16.017 24.9824 18.5874 26.1507C19.3886 26.518 19.5472 26.8685 19.2384 27.6864C17.7445 31.5755 16.2506 35.4673 14.7568 39.362C14.5398 39.9378 14.0641 40.1381 13.4632 39.9045C9.07335 38.2103 5.00065 34.8136 2.54701 29.9731C0.468932 25.867 0.443895 22.6539 0.310364 20.9013ZM2.05461 20.7427C2.088 21.2936 2.10469 21.9362 2.16311 22.5871C2.68889 28.5877 6.30257 34.5632 13.096 37.8681C13.363 37.9933 13.4632 37.9349 13.5633 37.6762C14.8068 34.413 16.0587 31.1498 17.3189 27.8867C17.4274 27.6112 17.369 27.4861 17.1186 27.3275C14.4814 25.6667 13.1711 23.2798 13.313 20.1502C13.3964 18.3475 14.0891 16.7702 15.2992 15.4516C17.8029 12.7225 21.7254 12.13 24.9385 13.9827C26.2378 14.7319 27.2881 15.8465 27.9588 17.1879C28.6295 18.5293 28.891 20.0383 28.7108 21.5272C28.4103 24.081 27.1 26.0256 24.8968 27.3525C24.6715 27.4861 24.6047 27.5946 24.7048 27.8533C25.9734 31.1248 27.2308 34.3991 28.4771 37.6762C28.5772 37.9349 28.6774 37.9933 28.9444 37.8681C31.9072 36.4827 34.3858 34.5048 36.297 31.8592C39.2013 27.8366 40.3947 23.3549 39.8272 18.4226C38.6839 8.61644 29.8625 0.496081 18.504 1.89816C9.6492 2.9831 2.20484 10.4525 2.05461 20.7427Z" fill="black"/>
</svg>
