<svg width="23" height="25" viewBox="0 0 23 25" fill="none" xmlns="http://www.w3.org/2000/svg">
<path d="M22.2127 10.2521C20.0625 10.2573 17.965 9.58668 16.2166 8.33512V17.0639C16.216 18.6806 15.7218 20.2585 14.8002 21.5868C13.8786 22.915 12.5735 23.9302 11.0593 24.4967C9.54511 25.0632 7.89408 25.1539 6.32697 24.7566C4.75986 24.3594 3.35136 23.4933 2.28981 22.274C1.22826 21.0547 0.564263 19.5403 0.386595 17.9335C0.208928 16.3266 0.526063 14.7038 1.2956 13.282C2.06513 11.8602 3.25038 10.7073 4.69286 9.97732C6.13534 9.24735 7.7663 8.97517 9.36765 9.19715V13.5874C8.63487 13.3569 7.84799 13.3639 7.11939 13.6073C6.39079 13.8507 5.75773 14.318 5.31061 14.9427C4.86349 15.5673 4.62517 16.3173 4.6297 17.0854C4.63422 17.8536 4.88135 18.6007 5.3358 19.22C5.79025 19.8394 6.42878 20.2993 7.16019 20.534C7.89161 20.7688 8.67851 20.7665 9.40853 20.5274C10.1385 20.2883 10.7743 19.8246 11.2251 19.2026C11.6759 18.5806 11.9186 17.8321 11.9186 17.0639V0H16.2166C16.2136 0.362953 16.244 0.725412 16.3074 1.08279C16.4567 1.88059 16.7673 2.63954 17.22 3.31321C17.6727 3.98688 18.2581 4.56111 18.9404 5.00078C19.911 5.64259 21.0491 5.98467 22.2127 5.98443V10.2521Z" fill="#FBFAFC"/>
</svg>
