<svg width="31" height="25" viewBox="0 0 31 25" fill="none" xmlns="http://www.w3.org/2000/svg">
<path d="M27.836 6.23045C27.8556 6.50387 27.8556 6.77735 27.8556 7.05078C27.8556 15.3906 21.508 25 9.90635 25C6.33211 25 3.01182 23.9648 0.218842 22.168C0.726673 22.2266 1.2149 22.2461 1.74227 22.2461C4.69145 22.2461 7.40633 21.25 9.57431 19.5508C6.80087 19.4922 4.47664 17.6758 3.67585 15.1758C4.0665 15.2343 4.4571 15.2734 4.8673 15.2734C5.43369 15.2734 6.00013 15.1953 6.52744 15.0586C3.63683 14.4726 1.46879 11.9336 1.46879 8.86718V8.78908C2.3086 9.25783 3.28525 9.5508 4.32033 9.58982C2.6211 8.45698 1.50787 6.52341 1.50787 4.33589C1.50787 3.16404 1.82031 2.08982 2.36722 1.15231C5.4727 4.98044 10.1407 7.48039 15.375 7.75388C15.2774 7.28513 15.2188 6.79689 15.2188 6.3086C15.2188 2.832 18.0313 0 21.5274 0C23.3438 0 24.9844 0.761717 26.1367 1.99219C27.5625 1.71876 28.9297 1.19139 30.1407 0.468753C29.6718 1.93363 28.6758 3.1641 27.3672 3.9453C28.6368 3.80864 29.8672 3.457 31 2.96877C30.1408 4.21872 29.0665 5.33196 27.836 6.23045Z" fill="#FBFAFC"/>
</svg>
